<svg width="80" height="81" viewBox="0 0 80 81" fill="none" xmlns="http://www.w3.org/2000/svg">
<path d="M39.9729 63.7584C34.4965 63.7584 29.0201 63.7584 23.5437 63.7584C22.255 63.7584 21.6897 62.9633 22.1691 61.7658C23.946 57.3325 27.09 54.1717 31.285 51.9864C31.7522 51.7422 32.1581 51.3827 32.6032 51.0919C33.2777 50.6514 33.9349 50.1716 34.651 49.8121C35.0434 49.6157 35.2936 49.3851 35.4322 48.9949C35.4788 48.8648 35.5352 48.7384 35.5732 48.6071C35.7902 47.8513 35.778 47.8415 35.1379 47.3715C34.5211 46.9187 33.8994 46.4721 33.3095 45.9862C32.0735 44.9665 31.2335 43.6733 30.7688 42.1382C30.7124 41.953 30.7038 41.7763 30.4082 41.7677C28.3457 41.7076 26.9613 40.5468 26.5076 38.5062C26.2819 37.4939 26.3236 36.4988 26.8141 35.5577C26.8914 35.4092 26.9699 35.2301 27.0998 35.1479C27.6725 34.7859 27.6431 34.2595 27.6087 33.6791C27.48 31.4803 27.8552 29.317 28.0882 27.1428C28.1851 26.236 28.1176 25.312 28.1704 24.3991C28.1949 23.9832 28.2194 23.5009 28.434 23.1721C29.3843 21.7132 30.6106 20.4935 32.3653 20.1499C33.4898 19.9303 34.4291 19.4149 35.4432 18.9708C39.3034 17.2799 43.1563 17.3241 46.9257 19.3143C48.136 19.9536 49.247 20.7328 50.2255 21.6948C50.9368 22.3954 51.3635 23.193 51.415 24.2384C51.4481 24.9071 51.7902 25.555 51.9202 26.2274C52.4389 28.8864 52.5027 31.5748 52.3862 34.273C52.3776 34.4607 52.4867 34.7074 52.6253 34.8362C53.1661 35.3442 53.4604 35.9737 53.5609 36.6841C53.7681 38.1565 53.3978 39.4805 52.4119 40.6057C51.7068 41.4106 50.7957 41.802 49.7289 41.775C49.4273 41.7677 49.312 41.8487 49.2261 42.1395C48.7283 43.8205 47.7694 45.1911 46.3702 46.2476C45.7718 46.6991 45.1673 47.1421 44.5664 47.5899C44.4818 47.6537 44.3727 47.7102 44.3273 47.7973C44.1409 48.158 44.705 49.5433 45.1035 49.6894C46.0686 50.0403 46.8938 50.5974 47.6382 51.3004C47.8994 51.5471 48.2243 51.7397 48.548 51.9041C52.8362 54.0895 56.0404 57.2932 57.8466 61.8075C58.3003 62.9425 57.7215 63.756 56.4953 63.756C50.9883 63.756 45.4812 63.756 39.9742 63.756L39.9729 63.7584ZM30.8877 34.6509C31.0778 36.5197 31.2163 38.3958 31.4751 40.2548C31.7105 41.9444 32.2476 43.569 33.5805 44.7248C34.6486 45.6524 35.8074 46.493 36.9981 47.2586C38.9883 48.5384 41.0398 48.4991 43.041 47.2439C43.8552 46.7335 44.6179 46.1408 45.4089 45.5948C46.9993 44.4978 47.9312 42.9738 48.3543 41.1075C48.9184 38.6142 48.9968 36.078 49.0165 33.538C49.0312 31.5564 48.819 29.5993 48.2501 27.6937C47.9643 26.7354 47.5891 25.8176 46.8031 25.1366C46.3813 24.7697 45.9165 24.6445 45.3598 24.7697C41.7853 25.5734 38.2084 25.5746 34.6339 24.7697C34.06 24.6408 33.5903 24.782 33.1575 25.1685C32.3935 25.8507 32.0232 26.7513 31.7436 27.6949C31.0704 29.9625 30.9098 32.2889 30.8865 34.6509H30.8877ZM29.8724 34.3577C29.8724 34.1466 29.8736 33.9662 29.8724 33.7859C29.8564 31.7895 30.0293 29.8128 30.5456 27.8777C30.8914 26.5832 31.3463 25.3366 32.3715 24.3942C33.0827 23.7402 33.8945 23.4752 34.8607 23.6936C38.3151 24.4764 41.7706 24.458 45.2249 23.6789C45.9889 23.5071 46.7124 23.6347 47.2936 24.1439C47.7571 24.55 48.2096 25.0188 48.5174 25.5464C49.5045 27.2323 49.8123 29.1256 49.995 31.0361C50.0992 32.1282 50.1139 33.23 50.1691 34.3466C50.5235 34.3172 50.8816 34.2877 51.2629 34.2558C51.4125 31.8533 51.3292 29.4888 50.9552 27.1415C50.7712 25.9869 50.4916 24.8458 50.228 23.7046C50.1679 23.4457 50.0379 23.1782 49.8699 22.9733C49.5707 22.6089 49.2458 22.2543 48.8828 21.9549C46.2685 19.7978 43.3242 18.6149 39.8761 18.9364C38.2942 19.0836 36.7479 19.3732 35.3843 20.2346C34.6461 20.7021 33.9018 21.0088 33.0189 21.1168C31.4922 21.3033 30.4352 22.2985 29.5487 23.469C29.3659 23.7108 29.3009 24.0776 29.2752 24.3954C29.236 24.8801 29.3242 25.3758 29.2789 25.8593C29.1195 27.5783 28.8865 29.2925 28.7614 31.014C28.6829 32.0889 28.7467 33.1736 28.7467 34.2902C28.9502 34.2902 29.117 34.2816 29.2838 34.2926C29.464 34.3037 29.6443 34.3319 29.8687 34.3577H29.8724ZM31.1881 53.3214C31.2078 53.3164 31.1746 53.3177 31.1489 53.3312C27.4861 55.3484 24.7872 58.2368 23.2004 62.1302C23.0091 62.6001 23.0557 62.6541 23.5634 62.6553C27.0496 62.6566 30.5358 62.6553 34.022 62.6553C34.1336 62.6553 34.2452 62.6345 34.3641 62.6235C33.8761 61.8934 33.3856 61.2111 32.9515 60.4958C32.4389 59.6516 32.1507 58.7645 32.8019 57.8356C32.3322 57.7485 31.8945 57.6945 31.4714 57.5816C30.8791 57.4221 30.6719 57.1632 30.7393 56.5497C30.8558 55.476 31.0336 54.4097 31.1881 53.3226V53.3214ZM45.6075 62.6566H46.1115C49.5045 62.6566 52.8975 62.6566 56.2893 62.6566C56.9772 62.6566 57.0005 62.632 56.7442 62.005C55.3647 58.6258 53.0447 56.0331 50.0391 54.022C49.6345 53.7508 49.1979 53.5287 48.8117 53.3042C48.9674 54.4245 49.1415 55.5067 49.2605 56.5938C49.3218 57.1521 49.1207 57.411 48.5713 57.5644C48.136 57.6859 47.6835 57.7448 47.3549 57.8086C47.4138 58.3141 47.5634 58.8246 47.5021 59.308C47.4444 59.7583 47.2078 60.2062 46.9699 60.6062C46.5652 61.286 46.0968 61.9277 45.6075 62.6553V62.6566ZM36.1605 50.9876C35.9533 53.7496 36.8338 59.5362 37.5339 60.416C37.8307 58.946 38.0857 57.4061 38.4732 55.8993C38.6302 55.2871 38.4647 54.9275 38.1115 54.5962C37.6946 54.6699 37.3242 54.7656 36.9502 54.7913C36.6192 54.8134 36.3837 54.6171 36.3715 54.2723C36.3604 53.9336 36.5701 53.7815 36.9024 53.6956C37.2764 53.5999 37.6517 53.4551 37.9803 53.2551C38.3028 53.06 38.5677 52.7692 38.857 52.5189C39.6247 51.8575 40.3543 51.8502 41.1195 52.5005C41.2715 52.6293 41.4138 52.768 41.5658 52.8968C42.0441 53.3017 42.51 53.7054 43.2016 53.7398C43.3647 53.7484 43.6357 54.0784 43.632 54.2564C43.6284 54.4343 43.3721 54.6907 43.1746 54.7594C42.9502 54.8367 42.6265 54.8183 42.4168 54.7067C41.9766 54.4723 41.7461 54.6478 41.5523 55.0085C41.491 55.1214 41.3941 55.2601 41.4162 55.3656C41.7681 57.0748 42.1372 58.7792 42.5014 60.4811C43.5143 57.4282 43.9791 54.2723 43.8503 50.9839C41.2666 52.1827 38.7283 52.179 36.163 50.9876H36.1605ZM44.9515 50.8219C45.117 54.9496 44.4107 58.8442 42.8951 62.6566C43.2887 62.6566 43.6222 62.6762 43.9509 62.6468C44.0796 62.6357 44.2378 62.5449 44.3163 62.4394C44.8754 61.6934 45.4506 60.9571 45.9558 60.1755C46.7369 58.9681 46.6523 58.6552 45.4604 57.8417C45.2065 57.6687 44.9846 57.4785 45.0888 57.1337C45.1906 56.7975 45.464 56.7423 45.7792 56.73C46.4659 56.703 47.1501 56.6429 47.8368 56.6073C48.0956 56.5938 48.1838 56.4748 48.1569 56.2245C48.0306 55.0662 47.838 53.9238 47.3316 52.8588C46.857 51.8624 46.0281 51.2796 44.9527 50.8219H44.9515ZM35.0385 50.8968C34.0882 51.0784 32.9711 51.9655 32.602 53.0391C32.2525 54.0551 32.0857 55.1337 31.8442 56.1865C31.7767 56.4797 31.9165 56.6012 32.2096 56.6147C32.8951 56.6454 33.5842 56.6687 34.2648 56.7509C34.483 56.7767 34.8203 56.9484 34.8534 57.1067C34.8963 57.3104 34.7062 57.5779 34.5824 57.7976C34.5284 57.892 34.3849 57.935 34.2844 58.0049C33.4334 58.5963 33.3083 58.9645 33.8503 59.8332C34.423 60.751 35.0864 61.6124 35.7179 62.4934C35.7718 62.5695 35.8834 62.6443 35.9717 62.6492C36.3285 62.6664 36.6866 62.6566 37.1023 62.6566C35.5769 58.8356 34.8816 54.9423 35.0385 50.8992V50.8968ZM41.4738 62.6308C41.3451 60.3203 40.9944 58.0712 40.4009 55.865H39.5928C39.0054 58.0896 38.6474 60.3265 38.5235 62.6308H41.4738ZM43.2335 48.4268C41.0815 49.5789 38.9061 49.5703 36.759 48.4268C36.6069 48.909 36.4708 49.3384 36.3359 49.7618C38.2856 51.1127 41.8172 51.1078 43.6455 49.7618C43.5119 49.3298 43.3782 48.8967 43.2323 48.428L43.2335 48.4268ZM49.6235 40.6634C50.4487 40.6928 51.0962 40.4388 51.594 39.8658C52.3715 38.9701 52.6547 37.916 52.4573 36.754C52.2685 35.6436 51.3794 35.1246 50.3187 35.4755C50.2255 35.5062 50.1054 35.6191 50.0956 35.7037C50.0502 36.1062 50.0391 36.5136 50.0158 36.916C50.4217 36.916 50.7859 36.8534 51.1109 36.9406C51.296 36.9896 51.5082 37.2694 51.5413 37.4719C51.5916 37.7823 51.3426 37.9565 51.0275 37.9872C50.7872 38.0118 50.5345 37.997 50.3089 38.067C50.1581 38.1136 49.9509 38.2621 49.9276 38.3921C49.8013 39.1259 49.724 39.8682 49.6222 40.6634H49.6235ZM30.3764 40.6523C30.2783 39.9222 30.163 39.2461 30.1066 38.5651C30.0808 38.2572 29.9312 38.1234 29.6823 38.0584C29.4935 38.0093 29.2924 37.9811 29.0974 37.986C28.7222 37.9946 28.4548 37.8645 28.4364 37.4633C28.4181 37.0853 28.667 36.9148 29.014 36.8952C29.3242 36.878 29.6369 36.8915 29.9778 36.8915C29.9558 36.5013 29.9447 36.1209 29.9043 35.7442C29.8945 35.6497 29.7988 35.5074 29.7166 35.4865C28.9036 35.2804 27.8957 35.3417 27.6075 36.4939C27.2703 37.8424 27.5916 39.0388 28.5677 40.0302C29.0385 40.5088 29.6394 40.6977 30.3776 40.6523H30.3764ZM40.9834 53.8882C40.0477 52.9115 39.8944 52.9128 39.0152 53.8968C39.2568 54.2846 39.4837 54.7398 40.0122 54.73C40.5125 54.7214 40.7418 54.2858 40.9834 53.8882Z" fill="#3A3E56"/>
<path d="M42.027 42.4359C41.7548 43.2163 41.1711 43.512 39.9816 43.5071C38.8069 43.5022 38.233 43.2065 37.9976 42.4985C37.5402 42.4985 37.0865 42.5034 36.634 42.4973C35.9829 42.4874 35.55 42.188 35.4114 41.6641C35.2606 41.0935 35.4727 40.6113 36.0295 40.2702C37.0546 39.6432 38.1288 39.1438 39.4298 39.0616C39.0889 38.9033 38.8167 38.8125 38.5837 38.6591C38.249 38.4395 38.1729 38.0591 38.363 37.783C38.5604 37.4971 38.8694 37.4824 39.2373 37.7401C39.6358 38.0186 40.352 38.0223 40.7529 37.7474C41.1318 37.4873 41.4298 37.4983 41.6285 37.7806C41.8308 38.0677 41.7315 38.4456 41.3783 38.6873C41.2667 38.7634 41.1368 38.8174 41.0104 38.8702C40.8891 38.9205 40.7615 38.9573 40.6315 39.0321C41.8234 39.145 42.8756 39.6101 43.8774 40.2199C44.504 40.6015 44.7382 41.0567 44.5862 41.6543C44.4476 42.2003 43.9988 42.5083 43.2814 42.5095C42.8707 42.5095 42.4586 42.4641 42.0258 42.4371L42.027 42.4359ZM36.5261 41.3095C36.5359 41.3524 36.5457 41.3954 36.5555 41.4383C37.1833 41.3647 37.8284 41.3586 38.4366 41.204C39.485 40.9377 40.5003 40.9352 41.5488 41.2003C42.1668 41.3561 42.8216 41.3635 43.4593 41.4371C41.5439 39.7904 38.6352 39.6959 36.5261 41.3107V41.3095ZM40.8584 42.2788C40.8584 42.2347 40.8584 42.1905 40.8584 42.1451H39.1478C39.1478 42.1929 39.1478 42.2408 39.1478 42.2874C39.7192 42.4396 40.2894 42.4494 40.8584 42.2776V42.2788Z" fill="#3A3E56"/>
<path d="M48.3496 32.6283C48.3704 33.1498 47.9351 33.4799 47.6028 33.2529C45.8971 32.0872 44.1006 32.5081 42.2981 32.8872C42.238 32.8995 42.1779 32.9106 42.119 32.9265C41.7573 33.0234 41.501 32.8787 41.4078 32.5375C41.3171 32.2062 41.49 31.967 41.8174 31.8786C43.4262 31.443 45.0534 31.1854 46.699 31.621C47.1736 31.7461 47.6138 32.0222 48.0491 32.2676C48.2024 32.3535 48.2907 32.5547 48.3496 32.6283Z" fill="#3A3E56"/>
<path d="M35.0991 31.3132C36.0874 31.4899 37.0795 31.6519 38.0629 31.8482C38.4995 31.9353 38.7018 32.236 38.589 32.5525C38.4467 32.9501 38.1487 33.0004 37.7711 32.9035C36.4762 32.5722 35.1641 32.3439 33.8324 32.6237C33.4118 32.712 33.0059 32.9219 32.6233 33.1317C32.2334 33.3464 31.9256 33.3648 31.7404 33.0728C31.5221 32.7292 31.6656 32.4642 31.9562 32.247C32.8869 31.5513 33.9636 31.404 35.0991 31.312V31.3132Z" fill="#3A3E56"/>
<path d="M34.2829 34.6214C34.0377 34.7735 33.8574 34.8815 33.6809 34.9956C33.4135 35.1662 33.1487 35.1686 32.9402 34.9232C32.7183 34.6619 32.7489 34.3747 32.9991 34.149C33.1781 33.9882 33.3829 33.8385 33.6024 33.7428C34.473 33.36 35.3755 33.333 36.2903 33.5686C36.4068 33.5993 36.5208 33.652 36.6263 33.7121C36.9439 33.8901 37.2541 34.1011 37.1364 34.5281C37.0224 34.9441 36.6778 34.9662 36.3234 34.8852C36.1432 35.7539 35.7581 36.111 35.1131 36.0226C34.5368 35.9429 34.2584 35.5061 34.2842 34.6226L34.2829 34.6214Z" fill="#3A3E56"/>
<path d="M43.6874 34.8639C43.3073 34.9658 42.9958 34.9093 42.8683 34.5375C42.7395 34.1596 42.9946 33.9363 43.2815 33.7584C44.1828 33.1988 46.0847 33.3547 46.8989 34.0455C47.1748 34.2798 47.3073 34.5498 47.089 34.8848C46.9014 35.1719 46.585 35.1719 46.211 34.9093C46.1239 34.848 46.0344 34.7891 45.9388 34.7412C45.8738 34.7093 45.799 34.6995 45.7217 34.6786C45.7279 35.5572 45.4287 35.9879 44.8033 36.0284C44.1705 36.0689 43.8125 35.7081 43.6874 34.8651V34.8639Z" fill="#3A3E56"/>
</svg>
