<svg width="24" height="25" viewBox="0 0 24 25" fill="none" xmlns="http://www.w3.org/2000/svg">
<g clip-path="url(#clip0_2307_1282)">
<path d="M5 13.2348H16.17L11.29 18.1148C10.9 18.5048 10.9 19.1448 11.29 19.5348C11.68 19.9248 12.31 19.9248 12.7 19.5348L19.29 12.9448C19.68 12.5548 19.68 11.9248 19.29 11.5348L12.71 4.93483C12.32 4.54483 11.69 4.54483 11.3 4.93483C10.91 5.32483 10.91 5.95483 11.3 6.34483L16.17 11.2348H5C4.45 11.2348 4 11.6848 4 12.2348C4 12.7848 4.45 13.2348 5 13.2348Z" fill="white"/>
</g>
<defs>
<clipPath id="clip0_2307_1282">
<rect width="24" height="24" fill="white" transform="translate(0 0.234863)"/>
</clipPath>
</defs>
</svg>
