<svg width="16" height="17" viewBox="0 0 16 17" fill="none" xmlns="http://www.w3.org/2000/svg">
<g clip-path="url(#clip0_2630_7981)">
<g clip-path="url(#clip1_2630_7981)">
<path d="M3.33366 9.09439H10.7803L7.52699 12.3477C7.26699 12.6077 7.26699 13.0344 7.52699 13.2944C7.78699 13.5544 8.20699 13.5544 8.46699 13.2944L12.8603 8.90106C13.1203 8.64106 13.1203 8.22106 12.8603 7.96106L8.47366 3.56106C8.21366 3.30106 7.79366 3.30106 7.53366 3.56106C7.27366 3.82106 7.27366 4.24106 7.53366 4.50106L10.7803 7.76106H3.33366C2.96699 7.76106 2.66699 8.06106 2.66699 8.42773C2.66699 8.79439 2.96699 9.09439 3.33366 9.09439Z" fill="#FF4E00"/>
</g>
</g>
<defs>
<clipPath id="clip0_2630_7981">
<rect width="16" height="16" fill="white" transform="translate(0 0.427734)"/>
</clipPath>
<clipPath id="clip1_2630_7981">
<rect width="16" height="16" fill="white" transform="translate(0 0.427734)"/>
</clipPath>
</defs>
</svg>
