<svg width="80" height="81" viewBox="0 0 80 81" fill="none" xmlns="http://www.w3.org/2000/svg">
<path d="M23.6203 39.1436C24.1016 31.8116 27.7507 26.9814 35.0092 24.8814C32.8579 23.1596 32.4692 21.2909 33.9955 19.7879C34.8455 18.9499 35.9034 18.5717 37.1051 18.8474C38.2882 19.1189 38.8891 20.0664 39.4913 21.0665C40.3656 19.5912 41.3722 18.4055 43.3071 18.8626C44.6441 19.1784 45.5496 19.9943 45.8215 21.3255C46.1561 22.9573 45.3446 24.0766 43.935 24.8634C51.2391 26.9842 54.8925 31.8116 55.3666 39.1131C55.8379 39.1422 56.3704 39.1325 56.8858 39.2143C59.4857 39.6229 61.1814 41.7631 60.9849 44.316C60.7714 47.0837 58.7311 49.5522 55.8507 49.9483C55.7141 49.9677 55.5147 50.1533 55.4934 50.2849C54.7658 54.6692 51.9965 57.5546 48.1651 59.5936C41.6612 63.0553 33.6581 62.31 28.0469 57.7776C25.6435 55.8369 24.0033 53.4405 23.532 50.3819C23.4822 50.0591 23.3526 49.9677 23.0366 49.9179C19.6109 49.3707 17.2859 45.8273 18.1999 42.5706C18.7666 40.5496 20.5236 39.2073 22.6863 39.1464C23.0038 39.1381 23.3227 39.1464 23.6203 39.1464V39.1436ZM37.387 25.7887C37.0211 25.8441 36.5882 25.8995 36.1597 25.9771C30.3577 27.0188 26.196 31.0553 25.2022 36.7029C24.9843 37.9371 25.0057 39.2115 24.9416 40.4693C24.8078 43.1067 24.58 45.7442 24.5928 48.3816C24.6084 51.9555 26.2401 54.8132 29.1105 57.0268C34.5835 61.2476 42.3788 61.6825 48.3744 58.0505C50.7778 56.5946 52.7355 54.7232 53.7122 52.0594C54.4398 50.0758 54.5622 48.0049 54.4597 45.9243C54.3287 43.2508 54.1479 40.5801 53.9713 37.908C53.9343 37.3581 53.8489 36.8067 53.7293 36.2693C52.3553 30.0677 47.2653 25.7721 39.8459 25.6973C39.6565 25.6959 39.4259 25.7859 39.282 25.9078C38.2356 26.8013 37.4311 27.8638 37.0182 29.17C36.6366 30.3752 36.5484 31.59 37.1506 32.7536C37.7088 33.8313 38.6499 34.3452 39.8886 34.269C40.9607 34.2025 41.7182 33.6623 42.1225 32.6885C42.3959 32.0319 42.2535 31.4778 41.7481 31.108C41.2326 30.7298 40.8254 30.7658 40.1847 31.2437C39.8929 31.4626 39.5853 31.482 39.3162 31.234C39.0457 30.9847 39.0172 30.6494 39.2792 30.4029C39.564 30.1328 39.8929 29.8529 40.2573 29.7283C41.2198 29.3986 42.0841 29.6743 42.7931 30.3572C43.5477 31.083 43.7129 31.964 43.3897 32.9364C42.8985 34.4145 41.4989 35.4589 39.9384 35.5226C38.1217 35.5961 36.5541 34.6624 35.8749 33.0611C35.2271 31.5291 35.3054 29.9651 35.9233 28.4622C36.3063 27.5313 36.8929 26.6794 37.3884 25.7901L37.387 25.7887ZM55.6016 43.471C56.0501 43.3741 56.4559 43.2453 56.8702 43.2078C57.4198 43.158 57.7373 43.4046 57.7558 43.8063C57.7743 44.2149 57.5237 44.4088 56.9271 44.4421C56.1811 44.485 55.7041 45.0072 55.7254 45.7359C55.7411 46.2526 55.7397 46.7706 55.7425 47.2887C55.7454 47.7472 55.7425 48.2057 55.7425 48.6822C55.8621 48.6656 55.9689 48.6601 56.07 48.6365C58.1972 48.1337 59.7932 46.0614 59.7106 43.9129C59.6195 41.5373 57.6376 39.9512 55.3368 40.4734C55.425 41.4708 55.5133 42.4751 55.6016 43.471ZM23.6573 40.4831C22.3346 40.1285 20.7514 40.6909 19.9911 41.7589C18.4633 43.9032 19.5739 47.3123 22.1567 48.3775C22.5041 48.5202 22.8771 48.6074 23.2473 48.7224C23.2473 47.7597 23.2259 46.8815 23.253 46.0032C23.2857 44.9131 22.9639 44.5294 21.8591 44.4462C21.5088 44.4199 21.2355 44.2551 21.2568 43.9254C21.2725 43.6982 21.449 43.4032 21.6455 43.2882C21.8434 43.1718 22.1624 43.1968 22.4172 43.2342C22.7376 43.2813 23.0465 43.4018 23.3868 43.4974C23.4779 42.4806 23.5662 41.5013 23.6573 40.4831ZM40.8867 24.4146C41.9175 24.319 43.001 24.0904 43.9065 23.3743C44.4931 22.9102 44.738 22.2952 44.5771 21.5776C44.392 20.759 43.8268 20.2825 43.0024 20.0664C42.2421 19.8669 41.6982 20.1841 41.2398 20.7285C40.4866 21.622 40.2303 22.6872 40.1463 23.8023C40.1064 24.3342 40.2289 24.4326 40.8881 24.4132L40.8867 24.4146ZM38.8521 23.8134C38.7325 22.5958 38.4904 21.4086 37.5322 20.5249C37.2603 20.2742 36.8417 20.0761 36.4729 20.0414C35.5716 19.9569 34.7658 20.5401 34.4767 21.3671C34.1948 22.1733 34.4668 22.9435 35.2427 23.4906C36.134 24.1181 37.1649 24.3356 38.2384 24.4187C38.6983 24.4547 38.909 24.2691 38.8521 23.8134Z" fill="#3A3E56"/>
<path d="M39.4941 49.413C40.2031 49.413 40.9136 49.4006 41.6212 49.4158C42.813 49.4421 43.5021 50.312 43.2344 51.4341C42.7645 53.4011 41.3664 54.4469 39.2819 54.3901C37.4111 54.3389 36.0257 53.1019 35.6911 51.1833C35.5331 50.2719 36.2763 49.4477 37.3128 49.4172C38.039 49.3964 38.7665 49.413 39.4941 49.413ZM37.0907 50.7041C37.0537 50.8315 36.9711 50.9631 36.9839 51.085C37.1192 52.3054 38.1515 53.149 39.4927 53.149C40.8339 53.149 41.8633 52.3123 42.0028 51.0878C42.0171 50.9659 41.916 50.8315 41.822 50.5794C41.3849 51.7721 40.6787 52.4273 39.4969 52.4287C38.3138 52.4287 37.6076 51.7748 37.0907 50.7041ZM38.6014 50.6791C39.215 51.3787 39.981 51.3468 40.2985 50.6791H38.6014Z" fill="#3A3E56"/>
<path d="M31.5396 42.6125C31.3174 42.7261 31.074 42.8134 30.8789 42.9602C30.5415 43.2137 30.2183 43.2428 29.9392 42.9311C29.6559 42.6139 29.7598 42.2884 30.0403 42.0085C30.9159 41.1345 33.0958 41.0721 33.9685 41.9448C34.1964 42.172 34.2519 42.5682 34.3715 42.8923C34.417 43.017 34.4071 43.1611 34.4469 43.2885C34.7061 44.1349 34.4327 44.8967 33.7151 45.3109C33.036 45.7029 32.1689 45.5769 31.6221 45.0076C31.0555 44.4174 31.0199 43.6196 31.5239 42.8715C31.5524 42.8286 31.5766 42.7843 31.6022 42.7399C31.5808 42.697 31.5609 42.6554 31.5396 42.6125Z" fill="#3A3E56"/>
<path d="M47.3749 42.7371C47.8476 43.3383 47.9957 43.9783 47.6141 44.6681C47.2041 45.4092 46.3213 45.7237 45.5197 45.4245C44.7281 45.128 44.2953 44.3066 44.4846 43.4921C44.5459 43.2303 44.5046 42.9366 44.6085 42.6956C44.7452 42.377 44.9146 42.0238 45.178 41.8146C46.0807 41.0943 47.9857 41.1815 48.8671 41.9296C49.2387 42.2454 49.327 42.6443 49.0579 42.9214C48.7432 43.2455 48.4186 43.197 48.0754 42.9242C47.8989 42.7842 47.6625 42.715 47.4532 42.6139C47.429 42.654 47.4034 42.6956 47.3792 42.7358L47.3749 42.7371Z" fill="#3A3E56"/>
<path d="M39.5183 45.1461C40.2672 45.153 40.8595 45.5505 40.8937 46.1642C40.9065 46.4038 40.7499 46.7432 40.5548 46.8817C40.2715 47.0826 39.9284 46.9621 39.7475 46.6421C39.5653 46.3193 39.4329 46.3083 39.2464 46.6366C39.0655 46.9565 38.7594 47.0438 38.4277 46.8984C38.0917 46.7501 38.0105 46.462 38.0831 46.1185C38.2098 45.5159 38.7608 45.1405 39.5183 45.1461Z" fill="#3A3E56"/>
<path d="M35.9304 37.173C35.6229 37.3863 35.4093 37.5886 35.1545 37.6925C34.9039 37.795 34.6049 37.8518 34.3344 37.8296C34.0852 37.8102 33.7563 37.7215 33.6324 37.5498C33.5242 37.4002 33.5755 37.0373 33.6965 36.8599C33.9585 36.4776 35.0221 36.3142 35.4207 36.5677C35.593 36.6771 35.6969 36.8876 35.929 37.1716L35.9304 37.173Z" fill="#3A3E56"/>
<path d="M44.3134 36.4491C44.517 36.5184 44.9014 36.5641 45.1591 36.765C45.3371 36.9035 45.4652 37.3121 45.3812 37.4964C45.2972 37.6806 44.927 37.7928 44.6651 37.8316C44.4373 37.8648 44.1881 37.718 43.9475 37.7111C43.5275 37.6986 43.2512 37.5352 43.2313 37.1168C43.2128 36.6916 43.5032 36.5115 43.9019 36.4658C43.9902 36.4561 44.0785 36.4575 44.3134 36.4478V36.4491Z" fill="#3A3E56"/>
</svg>
