<svg width="102" height="101" viewBox="0 0 102 101" fill="none" xmlns="http://www.w3.org/2000/svg">
<g clip-path="url(#clip0_3154_45775)">
<path d="M33.6852 44.0034C34.4889 44.8071 35.5399 45.2167 36.5987 45.2167C37.6575 45.2167 38.7935 44.7917 39.6359 43.9416C41.2975 42.28 41.2279 39.521 39.5663 37.8595C37.9048 36.1979 35.2076 36.1979 33.5538 37.8595C31.8922 39.521 31.8922 42.2182 33.5538 43.872L33.6774 43.9957L33.6852 44.0034Z" fill="#FF4E00"/>
<path d="M51.0041 62.5273C40.5478 62.5273 34.6203 67.3111 32.0158 70.1628C31.1271 71.152 31.1812 72.659 32.1704 73.5632C33.1596 74.452 34.6666 74.3824 35.5708 73.4087C38.0979 70.642 42.8199 67.3343 51.0118 67.3343C59.2037 67.3343 63.9256 70.6265 66.4528 73.4087C66.9242 73.9265 67.5811 74.1892 68.2302 74.1892C68.8099 74.1892 69.3895 73.9806 69.8532 73.5632C70.8424 72.6745 70.9119 71.1443 70.0077 70.1628C67.4111 67.3111 61.4835 62.5273 51.0195 62.5273H50.9963H51.0041Z" fill="#FF4E00"/>
<path d="M51.0039 0C23.1514 0 0.5 22.6514 0.5 50.5039C0.5 78.3563 23.1514 101.008 51.0039 101.008C78.8563 101.008 101.508 78.3563 101.508 50.5039C101.508 22.6514 78.8486 0 51.0039 0ZM51.0039 96.1931C25.8176 96.1931 5.31468 75.6901 5.31468 50.5039C5.31468 25.3176 25.8099 4.80695 51.0039 4.80695C76.1978 4.80695 96.6931 25.3099 96.6931 50.4961C96.6931 75.6824 76.1901 96.1853 51.0039 96.1853V96.1931Z" fill="#FF4E00"/>
<path d="M62.5416 44.0034C63.3453 44.8071 64.3964 45.2167 65.4552 45.2167C66.5139 45.2167 67.65 44.7917 68.4923 43.9416C70.1539 42.28 70.0844 39.521 68.4228 37.8595C66.7612 36.1979 64.0641 36.1979 62.4102 37.8595C60.7487 39.521 60.7487 42.2182 62.4102 43.872L62.5339 43.9957L62.5416 44.0034Z" fill="#FF4E00"/>
</g>
<defs>
<clipPath id="clip0_3154_45775">
<rect width="101" height="101" fill="white" transform="translate(0.5)"/>
</clipPath>
</defs>
</svg>
