<svg width="18" height="19" viewBox="0 0 18 19" fill="none" xmlns="http://www.w3.org/2000/svg">
<g clip-path="url(#clip0_2307_1441)">
<path d="M15.0602 8.79986L12.0302 4.56236C11.7752 4.20236 11.3627 3.98486 10.9202 3.98486C9.80268 3.98486 9.15768 5.24486 9.80268 6.15236L12.0002 9.23486L9.80268 12.3174C9.15018 13.2249 9.80268 14.4849 10.9202 14.4849C11.3627 14.4849 11.7827 14.2674 12.0377 13.9074L15.0677 9.66986C15.2477 9.40736 15.2477 9.06236 15.0602 8.79986Z" fill="#FF4E00"/>
<path d="M9.81018 8.79986L6.78768 4.56236C6.52518 4.20236 6.11268 3.98486 5.67018 3.98486C4.55268 3.98486 3.90018 5.24486 4.55268 6.15236L6.75018 9.23486L4.55268 12.3174C3.90018 13.2249 4.55268 14.4849 5.67018 14.4849C6.11268 14.4849 6.53268 14.2674 6.78768 13.9074L9.81768 9.66986C9.99768 9.40736 9.99768 9.06236 9.81018 8.79986Z" fill="#FF4E00"/>
</g>
<defs>
<clipPath id="clip0_2307_1441">
<rect width="18" height="18" fill="white" transform="translate(0 0.234863)"/>
</clipPath>
</defs>
</svg>
