<svg width="80" height="81" viewBox="0 0 80 81" fill="none" xmlns="http://www.w3.org/2000/svg">
<path d="M52.2103 31.2786C52.1957 33.513 51.6246 35.6303 50.4719 37.5198C49.2022 39.5989 48.7506 41.8545 48.4744 44.2022C48.3309 45.4202 48.1277 46.6434 47.8183 47.8298C47.1742 50.2973 45.6243 52.0841 43.3891 53.3205C37.4936 56.5807 29.9128 55.4062 25.5101 50.4211C22.0384 46.4894 21.2137 41.919 22.9495 37.0326C25.2498 30.5557 29.6843 25.9155 36.0247 23.1702C38.9505 21.9035 42.057 21.5532 45.2126 22.3301C49.4957 23.3835 52.2329 26.8991 52.213 31.2799L52.2103 31.2786ZM37.8641 33.9699C37.6689 34.7139 37.8695 35.1458 38.6371 35.4565C38.9266 35.5737 39.2387 35.6369 39.5309 35.7475C40.5456 36.1267 40.8763 37.3513 40.191 38.1835C39.693 38.7878 39.0329 38.9169 38.3051 38.7418C36.5759 38.3283 35.03 37.5264 33.5823 36.5165C33.3021 36.3203 33.0006 36.1281 32.6792 36.0214C32.0856 35.8252 31.6831 36.161 31.7708 36.7785C31.8133 37.0748 31.9262 37.4026 32.1135 37.6291C32.9209 38.6035 33.7457 39.566 34.6103 40.4904C35.0233 40.9315 35.5466 41.2725 36.0088 41.6702C36.3116 41.9309 36.374 42.2627 36.1509 42.5958C35.9318 42.9224 35.613 43.0185 35.2398 42.8447C35.0897 42.7749 34.945 42.6959 34.8002 42.6169C33.5359 41.9348 32.2476 41.7544 30.8318 42.1955C29.2408 42.6906 27.6245 43.1409 25.9099 42.8539C25.4583 42.7788 25.0439 42.9632 24.8726 43.4372C24.7066 43.8967 24.8593 44.3378 25.2511 44.5617C25.696 44.8158 26.214 45.0515 26.7147 45.0831C29.0947 45.2358 31.1466 45.9956 32.7841 47.8074C33.6248 48.7383 34.7245 49.3848 35.8786 49.9142C38.9625 51.3323 42.7582 50.4843 44.2364 46.5802C44.7823 45.1371 45.093 43.6479 45.19 42.1205C45.2683 40.8933 45.2976 39.6582 45.2657 38.4284C45.2378 37.3276 45.5698 36.4559 46.4477 35.7528C46.9457 35.3538 47.3946 34.8772 47.7904 34.3768C48.7254 33.1944 49.2394 31.8671 48.9233 30.3384C48.4531 28.0631 46.6775 26.5818 44.0584 26.2474C41.7117 25.9471 39.7275 27.2099 39.1737 29.4602C38.9638 30.3134 38.6132 30.9889 37.8615 31.4471C37.6131 31.5985 37.6065 31.7631 37.7313 32.0238C37.8814 32.3372 37.9452 32.6901 38.0594 33.0219C38.0979 33.1351 38.1909 33.2286 38.2413 33.3379C38.3197 33.5117 38.3821 33.6934 38.4512 33.8712C38.2666 33.9015 38.082 33.9318 37.8641 33.9673V33.9699ZM36.6782 33.2207C36.7299 33.2036 36.7817 33.1865 36.8335 33.1694C36.7937 32.9811 36.791 32.7757 36.71 32.6085C36.2651 31.6867 36.3568 31.2285 37.1709 30.6097C37.5813 30.2976 37.8203 29.9223 37.9518 29.4075C38.5189 27.2007 39.8404 25.6772 42.1446 25.1426C43.3731 24.8582 44.5844 25.0504 45.7704 25.4046C48.8223 26.3145 50.7335 29.4062 50.0615 32.4228C49.6989 34.0489 48.7692 35.3802 47.4849 36.4177C46.7133 37.0419 46.3388 37.7371 46.4729 38.7115C46.5061 38.9538 46.4889 39.2039 46.4902 39.4502C46.5008 41.6596 46.3401 43.848 45.6986 45.9785C45.2431 47.4927 44.5937 48.9253 43.3745 49.9826C41.1233 51.9353 38.5574 52.225 35.8122 51.1769C34.0644 50.5106 32.6181 49.3914 31.3179 48.0813C30.4639 47.2215 29.4533 46.6737 28.246 46.4999C27.6723 46.4169 27.0959 46.3577 26.5221 46.2826C25.2379 46.1154 24.1687 45.6361 23.6614 44.2891C23.769 45.2661 24.4158 46.8422 25.1754 48.0418C28.829 53.8117 37.1111 55.925 43.5219 51.8537C45.0412 50.8885 46.113 49.5376 46.5792 47.8035C46.9019 46.6039 47.129 45.3688 47.2791 44.1364C47.5832 41.6267 48.0335 39.196 49.4134 36.9839C50.4041 35.3946 50.9022 33.5947 51.0004 31.7039C51.2076 27.7116 48.8994 24.533 45.0014 23.5007C42.3651 22.8028 39.7687 23.1162 37.232 23.9642C34.0737 25.0215 31.4308 26.8965 29.1438 29.2613C26.121 32.3859 23.923 35.9556 23.3825 40.3521C23.2324 41.5727 23.2736 42.7973 23.5844 44.1074C23.7809 42.1745 24.684 41.4898 26.5354 41.7281C26.9392 41.7808 27.3615 41.7334 27.7719 41.6965C29.5462 41.5411 31.1678 40.5799 33.1255 40.7721C32.7191 40.3126 32.3499 39.9808 32.0869 39.5792C31.7163 39.0143 31.2064 38.7734 30.5715 38.6101C29.6777 38.3797 28.8198 38.0202 27.9326 37.7595C27.5833 37.6568 27.153 37.5449 26.9006 37.9636C26.6576 38.3678 26.8568 38.7286 27.1211 39.042C27.2792 39.2289 27.4677 39.3962 27.6603 39.5476C27.9578 39.782 28.2766 39.9926 28.5794 40.2204C28.9605 40.5088 29.0562 40.8604 28.8171 41.1408C28.5355 41.4713 28.2141 41.4213 27.8941 41.1869C27.5076 40.9038 27.068 40.6694 26.7519 40.3231C26.3389 39.8702 25.9019 39.3738 25.696 38.8168C25.2711 37.6607 26.1542 36.502 27.392 36.531C27.9246 36.5441 28.4625 36.7061 28.9818 36.8549C29.5236 37.0103 30.0456 37.2302 30.5689 37.4184C30.5689 37.0511 30.5516 36.7575 30.5715 36.4651C30.6499 35.363 31.6234 34.5809 32.7124 34.8219C33.2118 34.9325 33.7151 35.1708 34.1348 35.4657C35.2797 36.2676 36.4909 36.9286 37.8124 37.3842C38.167 37.5067 38.5495 37.5751 38.9226 37.6028C39.0462 37.612 39.2706 37.4316 39.2958 37.3078C39.3224 37.1775 39.1989 36.9721 39.0807 36.8707C38.9665 36.7733 38.7726 36.7706 38.6159 36.7193C37.9757 36.5112 37.301 36.2624 37.0102 35.6448C36.6954 34.9746 36.2093 34.4782 35.7405 33.9462C35.5997 33.7869 35.5054 33.5894 35.3779 33.4182C35.2611 33.2602 35.1468 33.093 34.9994 32.9679C34.3991 32.4623 33.763 32.6782 33.5837 33.438C33.5611 33.5328 33.5637 33.6342 33.5505 33.7316C33.5 34.1069 33.3008 34.3636 32.9037 34.332C32.5106 34.3004 32.3565 34.0292 32.3631 33.6408C32.3764 32.7401 32.9887 31.85 33.7988 31.584C34.5997 31.3207 35.5825 31.6867 36.1934 32.4886C36.3714 32.7217 36.5214 32.9771 36.6835 33.222L36.6782 33.2207Z" fill="#3A3E56"/>
<path d="M35.5077 64.3283C35.4227 63.6292 35.3749 62.9234 35.2434 62.2321C35.0615 61.267 34.505 60.5757 33.578 60.1714C31.0546 59.072 28.6414 57.7816 26.47 56.0804C23.2865 53.5865 20.8335 50.5594 19.7458 46.625C18.1919 40.9999 19.0963 35.6962 22.1483 30.7453C24.4539 27.0071 27.6347 24.105 31.2392 21.6388C32.4372 20.8198 33.6935 20.0851 34.9313 19.3266C35.699 18.8566 35.7959 18.3865 35.2288 17.6847C34.9805 17.3766 34.7202 17.079 34.4811 16.7643C34.2514 16.4601 34.2381 16.1402 34.5568 15.8953C34.853 15.6675 35.1545 15.7359 35.3909 16.0111C35.6923 16.3601 35.9845 16.7182 36.2701 17.0803C37.1373 18.1785 36.8876 19.511 35.6963 20.2523C34.2673 21.1424 32.8077 21.9917 31.4318 22.9555C27.9336 25.406 24.8749 28.3001 22.7686 32.0475C19.9795 37.0103 19.3341 42.2126 21.3422 47.602C22.6052 50.9912 24.9865 53.547 27.8857 55.6577C29.587 56.8968 31.3906 57.9844 33.3509 58.7441C35.5755 59.6066 36.5569 61.2051 36.622 63.4764C36.638 64.0176 36.6393 64.5601 36.6247 65.1026C36.6141 65.5002 36.4122 65.7807 35.9845 65.757C35.5848 65.7346 35.4227 65.462 35.436 65.0749C35.444 64.8287 35.4373 64.5825 35.4373 64.3362C35.4599 64.3336 35.4812 64.3323 35.5038 64.3297L35.5077 64.3283Z" fill="#3A3E56"/>
<path d="M52.0557 65.1829C52.5019 63.9992 52.8246 62.8695 53.3413 61.8358C54.0452 60.4269 54.9071 59.0957 55.684 57.7224C57.0958 55.2272 58.3589 52.6675 59.1252 49.8931C60.2846 45.6941 59.8397 41.6215 58.0547 37.6897C57.3774 36.1979 56.6363 34.71 55.7265 33.3524C53.3134 29.7525 52.9561 25.8853 53.907 21.7903C54.3506 19.8784 55.0665 18.0639 55.878 16.2824C56.0453 15.9137 56.2724 15.6609 56.72 15.8189C57.0879 15.9493 57.1795 16.2969 56.9643 16.7696C56.0134 18.8527 55.1913 20.9752 54.8075 23.2453C54.2603 26.4739 54.6747 29.5142 56.5022 32.3122C58.1464 34.8298 59.4997 37.487 60.3258 40.3903C61.5463 44.6802 61.0483 48.8384 59.3881 52.915C58.2871 55.6169 56.8674 58.1556 55.3547 60.6455C54.4861 62.0742 53.7331 63.5423 53.4024 65.1935C53.328 65.5648 53.1089 65.8374 52.725 65.7373C52.4939 65.678 52.3173 65.4094 52.0583 65.1829H52.0557Z" fill="#3A3E56"/>
<path d="M40.1257 31.1926C40.0593 31.3782 39.9397 31.4994 39.7339 31.5165C39.5134 31.5349 39.3222 31.3914 39.277 31.1794C39.2319 30.97 39.3527 30.762 39.5572 30.6869C39.6236 30.6632 39.6821 30.6132 39.7498 30.6C39.8388 30.5842 39.9397 30.5697 40.0221 30.5961C40.305 30.6856 40.5507 31.1017 40.5095 31.394C40.4922 31.5178 40.4165 31.5928 40.3182 31.5744C40.204 31.5533 40.1695 31.4783 40.1814 31.3664C40.1881 31.3097 40.1695 31.2492 40.1629 31.1912C40.1509 31.1912 40.1376 31.1912 40.1257 31.1926Z" fill="#3A3E56"/>
</svg>
