<svg width="101" height="31" viewBox="0 0 101 31" fill="none" xmlns="http://www.w3.org/2000/svg">
<path d="M28.6597 12.2978H18.6932V14.165C18.6801 16.3646 20.4532 18.1581 22.6529 18.1706H25.0906V22.9824C25.0906 23.6203 24.5732 24.1375 23.9351 24.1375H8.82734C7.87021 24.1375 7.09439 23.3619 7.09439 22.405V12.2908V8.16152C7.09339 7.20467 7.86871 6.42808 8.82584 6.42708H25.048V0.219851H8.37607C7.21109 0.21885 6.06263 0.490732 5.02186 1.01297C3.56437 1.72297 2.38686 2.89962 1.67715 4.35667C1.15476 5.39713 0.882798 6.54575 0.8838 7.70988V22.8517C0.881797 24.0178 1.15376 25.1679 1.67715 26.2094C2.38786 27.6644 3.56537 28.8396 5.02186 29.5486C6.06263 30.0708 7.21159 30.3427 8.37607 30.3417H20.955C23.2925 30.3377 25.1867 28.4445 25.1902 26.1078V24.4239C25.1842 24.2707 25.3039 24.1415 25.4572 24.1355H25.4612H25.4827C28.8515 24.0388 31.0182 22.403 31.0182 19.5636V12.2978H28.6597Z" fill="white"/>
<path d="M35.5635 11.9127C35.5635 15.7626 38.789 18.1685 43.1689 18.1685H57.8976C58.7886 18.1024 59.5644 18.7709 59.6305 19.6611C59.6365 19.7407 59.6365 19.8214 59.6305 19.901V22.4035C59.6966 23.2942 59.028 24.0698 58.1375 24.1359C58.0578 24.1419 57.9772 24.1419 57.8976 24.1359H37.1517V30.3426H58.0408C62.1643 30.4478 65.5922 27.1912 65.6974 23.0689C65.7004 22.9427 65.7004 22.8161 65.6974 22.6899V19.949C65.8025 15.8287 62.5465 12.4034 58.425 12.2983C58.2982 12.2953 58.171 12.2953 58.0443 12.2983H43.3613C42.4703 12.3644 41.6944 11.6964 41.6283 10.8057C41.6223 10.7261 41.6223 10.6455 41.6283 10.5658V7.58165C41.5747 6.99732 42.0055 6.4801 42.59 6.42652C42.6546 6.42051 42.7192 6.42051 42.7838 6.42652H63.1921V0.219794H45.7193C43.3938 0.206776 41.4976 2.08041 41.4841 4.40518V6.13762C41.4901 6.29083 41.3704 6.42001 41.2171 6.42602H41.2136H41.1921C38.211 6.52266 35.5645 8.20652 35.5645 11.9117L35.5635 11.9127Z" fill="white"/>
<path d="M70.752 21.5363V30.3422H76.9605V16.5353C76.9605 15.9099 77.4419 15.8133 77.7784 16.1497L92.4114 30.3447H100.883L85.3804 15.2815L100.879 0.219849H92.4069L77.7749 14.4148C77.4384 14.7513 76.957 14.6556 76.957 14.0293V0.219849H70.752V9.0738C70.752 12.2493 72.822 14.1745 76.5293 15.1849C76.6735 15.233 76.6735 15.3772 76.5293 15.4257C72.822 16.4356 70.752 18.3604 70.752 21.5358V21.5363Z" fill="white"/>
</svg>
