<svg width="16" height="16" viewBox="0 0 16 16" fill="none" xmlns="http://www.w3.org/2000/svg">
<g clip-path="url(#clip0_3111_40418)">
<path fill-rule="evenodd" clip-rule="evenodd" d="M3.99967 13.332H11.9997C12.3663 13.332 12.6663 13.632 12.6663 13.9987C12.6663 14.3654 12.3663 14.6654 11.9997 14.6654H3.99967C3.63301 14.6654 3.33301 14.3654 3.33301 13.9987C3.33301 13.632 3.63301 13.332 3.99967 13.332ZM7.99967 4.66536C7.26634 4.66536 6.66634 5.26536 6.66634 5.9987C6.66634 6.73203 7.26634 7.33203 7.99967 7.33203C8.3533 7.33203 8.69243 7.19156 8.94248 6.94151C9.19253 6.69146 9.33301 6.35232 9.33301 5.9987C9.33301 5.64508 9.19253 5.30594 8.94248 5.05589C8.69243 4.80584 8.3533 4.66536 7.99967 4.66536ZM7.99967 1.33203C10.1797 1.33203 12.6663 2.97203 12.6663 6.0987C12.6663 8.08536 11.2463 10.1787 8.40634 12.3587C8.16634 12.5454 7.83301 12.5454 7.59301 12.3587C4.75301 10.172 3.33301 8.08536 3.33301 6.0987C3.33301 2.97203 5.81967 1.33203 7.99967 1.33203Z" fill="#FF4E00"/>
</g>
<defs>
<clipPath id="clip0_3111_40418">
<rect width="16" height="16" fill="white"/>
</clipPath>
</defs>
</svg>
