<svg width="16" height="16" viewBox="0 0 16 16" fill="none" xmlns="http://www.w3.org/2000/svg">
<path d="M7.99935 5.33464C6.52602 5.33464 5.33268 6.52797 5.33268 8.0013C5.33268 9.47464 6.52602 10.668 7.99935 10.668C9.47268 10.668 10.666 9.47464 10.666 8.0013C10.666 6.52797 9.47268 5.33464 7.99935 5.33464ZM13.9593 7.33463C13.6527 4.55464 11.446 2.34797 8.66602 2.0413V1.33464C8.66602 0.967969 8.36601 0.667969 7.99935 0.667969C7.63268 0.667969 7.33268 0.967969 7.33268 1.33464V2.0413C4.55268 2.34797 2.34602 4.55464 2.03935 7.33463H1.33268C0.966016 7.33463 0.666016 7.63463 0.666016 8.0013C0.666016 8.36797 0.966016 8.66797 1.33268 8.66797H2.03935C2.34602 11.448 4.55268 13.6546 7.33268 13.9613V14.668C7.33268 15.0346 7.63268 15.3346 7.99935 15.3346C8.36601 15.3346 8.66602 15.0346 8.66602 14.668V13.9613C11.446 13.6546 13.6527 11.448 13.9593 8.66797H14.666C15.0327 8.66797 15.3327 8.36797 15.3327 8.0013C15.3327 7.63463 15.0327 7.33463 14.666 7.33463H13.9593ZM7.99935 12.668C5.41935 12.668 3.33268 10.5813 3.33268 8.0013C3.33268 5.4213 5.41935 3.33464 7.99935 3.33464C10.5793 3.33464 12.666 5.4213 12.666 8.0013C12.666 10.5813 10.5793 12.668 7.99935 12.668Z" fill="#FF4E00"/>
</svg>
