<svg width="16" height="20" viewBox="0 0 16 20" fill="none" xmlns="http://www.w3.org/2000/svg">
<path d="M15 8.44434C15 13.8888 8 18.5554 8 18.5554C8 18.5554 1 13.8888 1 8.44434C1 6.58782 1.7375 4.80734 3.05025 3.49459C4.36301 2.18183 6.14348 1.44434 8 1.44434C9.85652 1.44434 11.637 2.18183 12.9497 3.49459C14.2625 4.80734 15 6.58782 15 8.44434Z" stroke="#FF4E00" stroke-width="1.5" stroke-linecap="round" stroke-linejoin="round"/>
<path d="M8.0013 10.7775C9.28997 10.7775 10.3346 9.73284 10.3346 8.44417C10.3346 7.15551 9.28997 6.11084 8.0013 6.11084C6.71264 6.11084 5.66797 7.15551 5.66797 8.44417C5.66797 9.73284 6.71264 10.7775 8.0013 10.7775Z" stroke="#FF4E00" stroke-width="1.5" stroke-linecap="round" stroke-linejoin="round"/>
</svg>
