<svg width="107" height="76" viewBox="0 0 107 76" fill="none" xmlns="http://www.w3.org/2000/svg">
<path d="M11.9144 51.1489C11.4073 51.1852 11.0442 51.3572 10.9692 51.9459C10.4621 55.049 10.024 58.0768 9.51691 61.1799C9.44489 61.7686 9.44489 62.4267 9.29786 63.0213C9.0068 64.2831 7.91757 65.0167 6.68432 64.9593C5.52308 64.8959 4.6499 63.8605 4.79693 62.6078C5.16 59.6585 5.59509 56.6339 6.03018 53.6816C6.1022 53.3858 6.24923 53.0809 6.17421 52.7941C6.1022 52.5798 5.81114 52.3081 5.66711 52.3172C4.72191 52.3111 3.7077 52.5285 2.83452 52.3715C1.38222 52.1813 0.65607 51.0644 0.947131 49.7272C1.16618 48.5438 2.2554 47.8827 3.7077 47.8526C4.72491 47.7801 5.81414 47.5598 6.83135 47.2669C7.0504 47.2519 7.26644 46.7991 7.33846 46.5002C7.92058 42.6605 8.42768 38.8992 8.93479 35.0625C9.07882 34.5403 8.86277 34.2626 8.35266 34.2988C7.40747 34.3652 6.53729 34.4256 5.59209 34.492C4.13979 34.5946 3.12258 33.8611 3.12258 32.4755C3.12258 31.1594 4.06778 30.0696 5.52008 29.97C6.68132 29.8161 7.84256 29.7346 9.0068 29.7255C9.66094 29.6802 9.87698 29.3723 10.096 28.7716C11.1853 25.6986 11.0412 22.5683 11.6203 19.3866C11.7644 18.7195 11.8394 18.0554 11.9834 17.3883C12.2745 16.2714 13.2917 15.4684 14.3059 15.4714C15.3951 15.5408 16.3403 16.3498 16.3403 17.5211C16.4123 18.1007 16.2683 18.6953 16.1963 19.3564C15.9772 21.4906 15.6892 23.7033 15.3981 25.916C15.2541 26.8759 14.963 27.7724 14.744 28.7384C14.672 29.1822 14.6 29.481 15.1791 29.4387C17.0665 29.3784 18.9539 29.318 20.8443 29.1852C21.4264 29.2184 21.7144 28.9044 21.7894 28.3158C22.2966 24.627 22.8787 21.0076 23.3858 17.3188C23.5298 15.8457 24.403 14.762 25.6362 14.6775C26.9445 14.6594 28.0337 15.6042 27.8867 17.0773C27.6677 19.4289 27.3046 21.7925 26.9415 24.1561C26.7975 25.3364 26.6505 26.4412 26.5064 27.6215C26.3624 28.2162 26.6505 28.4879 27.2326 28.3732C27.8867 28.3279 28.4658 28.2856 29.048 28.3188C30.5003 28.2886 31.4454 29.318 31.2984 30.5707C31.2264 31.8899 30.1372 32.9162 28.7569 32.9404C27.9587 32.9977 27.0855 33.0581 26.2874 33.04C25.6332 33.0128 25.2702 33.3298 25.1261 34.0724C24.619 37.7612 24.0369 41.456 23.4548 45.2203C23.3828 45.7365 23.4548 46.0233 24.1089 45.978C25.1982 45.827 26.2154 45.7576 27.3046 45.5342C28.7569 45.2112 29.9181 45.8603 30.1372 47.2337C30.3562 48.7521 29.483 49.9837 28.0307 50.2313C26.5784 50.4063 25.0541 50.515 23.6018 50.5422C22.8037 50.5995 22.5846 50.9044 22.4406 51.647C22.0055 54.5993 21.4234 57.4911 20.9163 60.374C20.8443 61.0351 20.6972 61.6327 20.6252 62.2938C20.4062 63.6251 19.608 64.4854 18.4468 64.7118C17.3575 64.8627 16.5594 64.259 16.0493 63.127C15.6142 62.1338 15.6142 61.186 16.2683 60.1898C16.3403 60.0389 16.4123 59.8155 16.4874 59.6616C16.9945 57.0685 17.4325 54.4815 17.9397 51.8885C18.0837 51.001 17.7206 50.6629 16.9224 50.7927C16.1243 50.9225 15.2511 50.9105 14.4529 50.9678C13.6548 51.0252 12.7816 51.0855 11.9114 51.1459L11.9144 51.1489ZM17.8676 46.2014C18.5218 46.1561 18.7378 45.8482 18.8848 45.2535C19.392 41.7096 19.9741 38.1627 20.4812 34.6218C20.5532 34.178 20.4812 33.8913 19.8991 33.8581C18.0837 33.9848 16.2683 33.9667 14.4529 34.0965C14.1619 34.1177 13.6548 34.5916 13.5828 34.8874C13.0006 38.5098 12.4935 42.1956 11.9864 45.812C11.9144 46.3281 12.0584 46.5364 12.6406 46.4972C13.5107 46.4368 14.4559 46.3704 15.3261 46.307C16.1963 46.2436 16.9975 46.1893 17.8676 46.2014Z" fill="white"/>
<path d="M35.6524 35.0325C35.9765 33.973 36.2736 32.8832 36.6006 31.8267C36.6666 31.555 36.7687 31.2471 36.8677 30.9724C37.0687 30.3898 37.2668 29.8434 37.5038 29.2578C37.6989 28.7416 37.8969 28.1953 38.0949 27.6459C38.197 27.338 38.326 27.0934 38.6801 26.9033C39.8383 26.855 41.1196 26.5984 42.2748 26.8519C42.4999 26.9033 42.6859 26.9908 42.8719 27.0783C42.8449 27.3138 42.8239 27.4828 42.8029 27.6519C42.7909 27.7515 42.7489 27.824 42.7399 27.8904C42.3588 28.8533 42.1428 29.8374 41.8607 30.7913C41.4856 32.2523 41.0836 33.6862 40.6755 35.1502C40.3004 36.3456 39.9253 37.541 39.5502 38.7364C39.0371 40.2427 38.524 41.7822 38.0739 43.3157C37.7439 44.4085 37.3508 45.471 36.9307 46.5034C36.8887 46.5728 36.8767 46.6755 36.8347 46.7449C36.2346 47.6233 35.8475 48.6527 35.3674 49.6217C35.0673 50.2103 34.6442 50.4398 34.0831 50.4458C33.69 50.4398 33.2849 50.5031 32.8829 50.5635C32.4478 50.6269 32.1327 50.5152 31.9017 50.2315C31.8797 50.2315 31.8697 50.2214 31.8717 50.2013C31.1785 49.6821 30.8424 48.9033 30.7284 47.9433C30.6744 47.3124 30.4764 46.757 30.3533 46.1321C30.1283 45.0122 29.9363 43.8561 29.7442 42.7331C29.5792 41.6434 29.4832 40.5476 29.2791 39.4911C29.0991 38.5342 28.9881 37.541 28.94 36.575C28.898 35.8445 28.82 35.114 28.673 34.4227C28.589 33.7617 28.574 33.0613 28.556 32.3942C28.508 31.4282 28.4599 30.4623 28.4119 29.4963C28.3669 28.2315 29.1801 27.2383 30.3443 27.1236C30.9415 27.0814 31.5446 27.0059 32.1747 26.9606C32.8048 26.9153 33.1919 27.2564 33.2429 27.9206C33.2789 28.7205 33.486 29.4389 33.621 30.2328C33.777 30.8577 33.8281 31.5218 33.9151 32.1497C33.9571 32.3459 33.9631 32.5814 34.0081 32.7444C34.3022 33.8583 34.4852 35.0506 34.6082 36.2098C34.6262 36.6083 34.7132 36.9705 34.7673 37.3358C34.8003 37.3358 34.8333 37.3297 34.8723 37.2965C35.1273 36.5449 35.3854 35.7902 35.6404 35.0386L35.6524 35.0325Z" fill="#59018F"/>
<path d="M51.6127 48.4085C51.3157 48.9639 50.6885 49.2417 50.1034 49.45C49.3863 49.6673 48.6481 49.785 47.955 49.8031C47.6549 49.8243 47.3939 49.8092 47.1448 49.6945C46.8327 49.5496 46.6287 49.3292 46.4967 49.0726C46.1786 48.4266 46.2656 47.7203 46.3556 46.9777C46.3916 46.6758 46.3676 46.3438 46.1216 46.1928C45.9686 46.1023 45.7675 46.1174 45.5365 46.1324C45.0054 46.1687 44.4743 46.2079 43.9431 46.2441C43.7781 46.2562 43.5771 46.2683 43.403 46.3498C43.085 46.54 42.9409 46.9173 42.7999 47.2614C42.4608 48.1549 41.8997 49.5284 40.9575 49.9631C40.5704 50.1563 40.1684 50.2197 39.8053 50.2439C39.2742 50.2801 38.7761 50.3163 38.254 50.2861C37.9269 50.2771 37.5698 50.2348 37.3268 50.0507C37.0267 49.8031 36.9517 49.3413 36.9997 48.9368C37.1797 47.7203 37.7259 46.4796 38.1639 45.3144C38.8691 43.5605 39.5712 41.8399 40.2164 40.0589C40.7895 38.5828 41.1676 37.0855 41.6417 35.6154C42.4788 33.0526 43.352 30.4505 44.4472 27.936C44.5793 27.6583 44.7173 27.3473 44.9093 27.0998C45.3264 26.6349 45.9446 26.4266 46.5177 26.318C47.1598 26.1731 47.8289 26.0916 48.4591 26.0493C49.1882 25.998 49.9744 26.0433 50.4455 26.5112C50.9466 27.0123 50.9706 27.8786 50.9766 28.6454C51.0036 29.5117 51.1056 30.3056 51.1356 31.1388C51.1506 32.1078 51.0636 33.0798 51.2166 34.0065C51.3397 34.6314 51.3607 35.2653 51.4147 35.8962C51.4477 36.4275 51.5167 36.9587 51.5827 37.487C51.7718 38.9088 51.5947 40.391 51.7118 41.855C51.8678 43.5485 51.9218 45.2812 51.9068 47.0531C51.8858 47.4878 51.8918 47.9889 51.6097 48.4115L51.6127 48.4085ZM46.3166 41.5652C46.3946 40.6566 46.4037 39.754 46.3766 38.8877C46.3556 38.2537 46.2626 37.6591 46.2056 37.0282C46.2056 37.0282 46.1726 37.0282 46.1396 37.0342C45.9746 37.0463 45.3144 38.9631 45.2274 39.1352C44.8643 39.9623 44.5013 40.7894 44.3662 41.6346C44.3152 41.7735 44.3002 41.9063 44.3872 41.9999C44.4743 42.0935 44.6063 42.0844 44.7743 42.0723C45.1404 42.0482 45.5335 42.0512 45.8995 42.0271C45.9656 42.021 46.0316 42.018 46.1036 41.9788C46.2446 41.9033 46.3316 41.7282 46.3196 41.5622L46.3166 41.5652Z" fill="#59018F"/>
<path d="M58.9609 31.2226C58.7569 31.5365 58.6548 31.8444 58.6128 32.1825C58.5018 33.3598 58.3938 34.5371 58.3188 35.7113C58.2528 36.5173 58.3218 37.3142 58.2588 38.1202C58.1957 39.1949 58.0277 40.3088 57.9287 41.3834C57.8717 41.8543 57.8177 42.292 57.7937 42.7629C57.7877 43.3636 58.1117 43.6746 58.7058 43.6685C59.0719 43.6414 59.471 43.6142 59.8341 43.59C60.0531 43.4089 60.1491 43.1674 60.1822 42.8988C60.2512 42.3252 60.3202 41.7547 60.3952 41.1479C60.4072 40.7797 60.5752 40.4657 60.9293 40.2756C61.7095 39.8197 62.4926 39.5964 63.3028 39.708C64.179 39.8137 64.7041 40.3782 64.7551 41.3109C64.7971 42.0415 64.7431 42.781 64.6201 43.5236C64.518 44.1002 64.476 44.7039 64.407 45.2745C64.368 45.8782 64.332 46.4487 63.9629 47.0434C63.6779 47.4962 63.3058 47.8584 62.8137 48.0939C60.7493 49.1081 58.4958 48.9663 56.4404 49.078C55.8763 49.1172 55.2791 49.1595 54.766 49.0297C53.7788 48.764 53.1187 47.9429 52.8066 46.9951C52.4886 46.0804 52.4856 45.0118 52.5186 43.9432C52.5366 41.0695 52.7886 38.1776 53.2387 35.2736C53.4848 33.7854 53.7638 32.2972 54.0759 30.806C54.3549 29.5835 54.46 28.1737 54.9941 27.0327C55.1681 26.6855 55.3962 26.438 55.7142 26.2478C57.4876 25.1883 59.537 25.4117 61.3584 25.3151C62.3846 25.2758 63.4078 25.2366 64.326 25.5415C66.8885 26.3958 65.8593 29.4748 65.6103 31.7992C65.5413 32.6383 65.1032 33.2723 64.362 33.6919C63.6899 34.0722 62.9967 34.356 62.2976 34.4375C61.7995 34.4737 61.3914 34.3016 61.0643 34.0239C60.7703 33.7432 60.7883 33.3085 60.9083 32.8647C61.1243 32.1825 61.1093 31.4822 61.1273 30.7788C60.3682 30.8 59.669 30.8483 58.9669 31.2316L58.9609 31.2226Z" fill="#59018F"/>
<path d="M72.6355 25.4153C72.4704 26.496 72.2754 27.5797 72.1103 28.6603C72.0053 29.5358 71.9363 30.3749 71.8283 31.2534C71.7833 31.6247 71.7773 31.9597 71.6993 32.331C71.4802 33.3151 71.3962 34.2901 71.3782 35.2591C71.3482 36.3308 71.1561 37.3782 70.9581 38.4619C70.7811 39.3766 70.6761 40.252 70.532 41.1636C70.427 41.7734 70.547 42.1326 71.3242 42.2443C71.5972 42.1568 71.9063 42.0692 72.1824 41.9515C72.5634 41.7915 72.8575 41.5349 72.9145 41.064C72.9955 40.3909 73.1096 39.7147 73.1966 39.0053C73.2986 38.4287 73.3976 37.8884 73.4996 37.3148C73.5536 36.8771 73.5687 36.4757 73.6167 36.0712C73.7547 34.9271 73.8927 33.78 74.0037 32.6027C74.2438 30.3478 74.3518 28.1019 74.9849 25.853C75.108 25.376 75.264 24.8991 75.6331 24.5701C76.0052 24.2108 76.5783 24.1022 77.0764 24.0659C77.8385 24.0116 78.6877 24.0871 79.1438 24.6546C79.6029 25.2251 79.5249 26.1307 79.4259 26.9397C79.1138 29.2339 78.6757 31.5009 78.4026 33.7589C78.2676 34.6041 78.1356 35.4161 78.0006 36.2583C77.9646 36.5602 77.8985 36.8349 77.8625 37.1367C77.8205 37.4748 77.8175 37.7737 77.8145 38.0755C77.8145 38.3442 77.8145 38.6431 77.7785 38.9147C77.4635 40.9735 77.0584 43.2405 76.1912 45.2388C76.0502 45.583 75.8761 45.9301 75.6451 46.2139C74.9069 47.1345 73.7457 47.4847 72.7045 47.6568C71.6933 47.862 70.6911 47.9647 69.6678 48.0039C68.9357 48.0552 68.1825 48.0401 67.5224 47.7866C66.4542 47.3609 65.83 46.2682 65.578 45.0849C65.3559 43.9317 65.512 42.6518 65.632 41.3719C65.794 39.7569 65.9561 38.142 66.2141 36.5541C66.4812 34.8999 66.8383 33.303 67.2343 31.673C67.3154 31.2655 67.3694 30.8277 67.4504 30.4202C67.5854 29.575 67.7204 28.7298 67.8885 27.8846C67.9215 27.6159 68.0235 27.308 68.1555 27.0303C68.4166 26.5111 68.7046 26.022 69.0227 25.5662C69.4248 24.9715 69.9559 24.6667 70.652 24.6153C71.2822 24.5701 71.9093 24.561 72.4464 24.7572C72.6235 24.9112 72.6625 25.1436 72.6295 25.4123L72.6355 25.4153Z" fill="#59018F"/>
<path d="M84.8567 32.4396C84.6287 34.3263 84.4367 36.1767 84.1456 38.0362C84.0106 39.1471 83.7765 40.267 83.5755 41.3839C83.3354 42.8359 83.0594 44.2939 82.8163 45.7459C82.8043 45.8455 82.7623 45.9179 82.7503 46.0175C82.6483 46.5941 82.3422 46.9473 81.7601 47.1224C81.283 47.2552 80.7579 47.5269 80.3048 47.4574C79.7857 47.3941 79.2996 47.3276 78.8645 47.1254C78.2344 46.902 77.9373 46.3556 77.9613 45.6191C78.1713 42.531 78.6094 39.461 79.0115 36.391C79.2366 34.8062 79.5906 33.2426 79.9147 31.6518C80.2028 30.3628 80.3948 29.0466 80.6529 27.7245C80.8179 26.9125 81.0189 26.0612 81.217 25.2462C81.319 24.9383 81.49 24.6273 81.6221 24.3496C81.8321 23.9662 82.1232 23.7459 82.5253 23.6855C83.3954 23.5587 84.2596 23.4953 85.0998 23.6372C85.2618 23.6583 85.3848 23.7187 85.5139 23.7429C86.015 24.7752 86.4141 25.8167 86.9572 26.7827C87.5003 27.7456 88.1514 28.6029 88.8266 29.5568C88.8506 29.3546 88.9016 29.2187 88.9166 29.0829C89.1086 28.0324 89.2737 26.9517 89.4657 25.9042C89.6127 25.225 89.7628 24.5488 90.1378 23.8847C90.3929 23.3987 90.759 23.1059 91.2931 23.0365C92.0942 22.9459 92.8864 22.9248 93.6636 23.0365C93.8256 23.0576 93.9846 23.115 94.0777 23.1422C94.6868 23.8334 94.3837 24.6907 94.2487 25.5359C94.1917 25.7412 94.1287 25.9797 94.1017 26.2151C93.8976 27.8996 93.7266 29.581 93.5195 31.3016C93.2915 33.1882 93.0934 35.1051 92.8264 37.028C92.5683 38.6158 92.2773 40.2066 91.9232 41.7703C91.7012 42.7876 91.6832 43.7566 91.4611 44.7769C91.3921 45.0818 91.3171 45.4229 91.2421 45.761C91.176 46.0326 90.987 46.247 90.741 46.3647C90.1528 46.6062 89.5257 46.8839 88.9376 46.8598C88.4185 46.7964 87.8994 46.733 87.4643 46.5307C86.8041 46.2772 86.5071 45.7278 86.5731 44.9218C86.7411 42.1718 87.1792 39.3674 87.4853 36.5722C87.5003 36.4363 87.4883 36.2703 87.4343 36.1737C87.0082 35.3345 86.6571 34.4229 86.126 33.6592C85.7359 33.0856 85.4869 32.4004 85.1718 31.7544C85.1478 31.688 85.0878 31.6276 85.0308 31.5642L84.9648 31.5702C84.9288 31.8721 84.8927 32.177 84.8597 32.4457L84.8567 32.4396Z" fill="#59018F"/>
<path d="M101.855 45.1417C101.075 45.3319 100.31 45.3832 99.5446 45.4707C98.6414 45.6005 97.7202 45.8662 96.817 45.9628C95.9139 46.0926 94.9657 46.0262 94.2965 45.5734C93.5314 45.0934 93.1773 44.215 93.0573 43.2882C92.9402 42.3615 93.0573 41.3835 93.1743 40.4054C93.3783 38.721 93.6154 37.0336 93.8854 35.3431C94.0775 34.027 94.3655 32.738 94.6206 31.4491C94.8096 30.4348 95.0287 29.4507 95.2147 28.4334C95.3347 27.724 95.4578 26.9784 95.5748 26.269C95.6378 26.0306 95.6978 25.7921 95.8208 25.5838C96.0819 25.0646 96.3429 24.5454 96.661 24.0896C97.1081 23.3892 97.8102 23.0391 98.5154 22.9244C99.6916 22.7402 100.859 22.5923 102.005 22.6466C102.695 22.6648 103.388 22.6497 104.073 22.701C104.628 22.7281 105.177 22.8247 105.726 22.9183C106.107 23.024 106.374 23.2745 106.494 23.6337C106.578 24.0292 106.698 24.3884 106.749 24.7839C106.83 25.4781 106.872 26.2117 106.884 26.9452C106.869 27.3467 106.746 27.8236 106.659 28.2644C106.527 29.342 106.395 30.4559 106.263 31.5336C106.164 32.0739 106.065 32.6173 105.972 33.1244C105.834 34.0028 105.66 34.8843 105.558 35.7265C105.186 37.9905 104.982 40.2092 104.31 42.4943C104.256 42.6664 104.199 42.8686 104.142 43.0739C103.736 44.2391 103.04 44.8217 101.852 45.1387L101.855 45.1417ZM100.844 28.4757C100.151 28.4908 99.6286 28.9949 99.5446 29.7043C99.4306 30.3804 99.3166 31.0566 99.2295 31.766C99.1515 32.406 99.1035 33.0761 99.0915 33.713C99.0045 35.2556 98.6174 36.8192 98.3954 38.3708C98.2963 38.9112 98.2273 39.4847 98.2273 40.019C98.2063 40.4537 98.6954 40.7888 99.1005 40.6922C99.3736 40.6046 99.6496 40.5201 99.9257 40.3994C100.241 40.2424 100.493 40.0583 100.571 39.687C100.697 39.1768 100.76 38.6727 100.82 38.1656C100.916 37.6584 100.937 37.1875 100.994 36.7166C101.108 36.0404 101.258 35.3612 101.306 34.6911C101.429 33.4142 101.516 32.1373 101.606 30.8604C101.657 30.154 101.714 29.4175 101.531 28.7624C101.366 28.5059 101.141 28.4545 100.841 28.4757H100.844Z" fill="#59018F"/>
<path d="M37.1557 53.6217C37.1347 54.8925 37.0477 56.1362 36.8287 57.4191C36.6696 58.4666 36.4386 59.5503 36.2135 60.6038C36.0665 61.283 35.8565 61.932 35.7124 62.578C35.4004 63.8036 34.4102 64.9084 33.1889 65.1952C32.4808 65.3461 31.7396 65.4639 31.0075 65.5484C30.5064 65.6178 29.9752 65.654 29.4771 65.6903C29.3391 65.7325 29.2071 65.7416 29.036 65.7869C29.021 65.9227 28.973 66.0253 28.961 66.125C28.841 66.8343 28.718 67.5769 28.601 68.2893C28.5559 68.6606 28.4779 69.0319 28.4329 69.4032C28.3099 70.4145 28.2169 71.4559 28.0578 72.5034C27.9528 73.1131 27.8118 73.7229 27.6708 74.3357C27.5387 74.8791 27.2027 75.2051 26.6896 75.3741C25.7654 75.673 24.8232 75.839 23.938 75.5341C23.4939 75.3983 23.2268 75.1507 23.2178 74.6829C23.1998 74.2844 23.1818 73.8829 23.1998 73.4814C23.3139 70.6348 23.794 67.7611 24.136 64.9296C24.3671 63.0097 24.8322 61.0717 25.2643 59.1368C25.3453 58.7292 25.4233 58.3579 25.4743 57.9534C25.6543 57.0056 25.7654 56.097 25.9784 55.1461C26.0804 54.5725 26.2545 53.9567 26.4225 53.3772C26.5215 53.1025 26.6536 52.8278 26.8186 52.547C26.9476 52.3055 27.1667 52.1214 27.4097 52.0037C27.9408 51.6988 28.5169 51.5599 29.0811 51.5177C30.9775 51.3516 32.8288 51.2882 34.6892 51.4241C35.3404 51.4784 35.9405 51.7048 36.4176 52.1033C36.5976 52.2572 36.7807 52.378 36.9577 52.5319C37.1497 52.8519 37.1707 53.2172 37.1557 53.6217ZM33.1589 57.5429C33.2039 57.1716 33.2489 56.8003 33.2909 56.4652C33.3479 55.9943 33.2729 55.7981 32.8168 55.7649C32.1687 55.6774 31.5086 55.6894 30.8814 55.7015C30.5544 55.6925 30.3263 55.94 30.2483 56.3143C30.1823 56.586 30.1163 56.8577 30.0833 57.1294C29.9542 57.6395 29.8612 58.1466 29.7682 58.6538C29.6332 59.2303 29.5672 59.7707 29.4651 60.3442C29.3331 60.8876 29.5582 61.2076 30.0863 61.2015C30.5154 61.2045 30.9504 61.1411 31.3885 61.0415C32.1657 60.8876 32.5408 60.4921 32.7358 59.7103C32.9219 58.9949 33.0449 58.2523 33.1949 57.5399H33.1619L33.1589 57.5429Z" fill="white"/>
<path d="M44.8492 73.2912C44.069 73.4784 43.3068 73.5327 42.5387 73.6202C41.6325 73.75 40.7143 74.0157 39.8111 74.1123C38.9079 74.2421 37.9597 74.1757 37.2906 73.7229C36.5254 73.2429 36.1714 72.3645 36.0543 71.4377C35.9373 70.511 36.0543 69.533 36.1714 68.5579C36.3754 66.8735 36.6124 65.1861 36.8825 63.4956C37.0745 62.1795 37.3626 60.8905 37.6177 59.6016C37.8067 58.5873 38.0227 57.6032 38.2118 56.5859C38.3288 55.8766 38.4518 55.134 38.5719 54.4216C38.6349 54.1831 38.6949 53.9446 38.8209 53.7363C39.082 53.2171 39.343 52.6979 39.6611 52.2391C40.1082 51.5387 40.8103 51.1886 41.5125 51.0739C42.6887 50.8897 43.859 50.7418 45.0022 50.7931C45.6923 50.8112 46.3855 50.7962 47.0696 50.8475C47.6247 50.8746 48.1738 50.9712 48.723 51.0648C49.104 51.1705 49.3711 51.421 49.4941 51.7802C49.5781 52.1757 49.6982 52.5349 49.7492 52.9303C49.8302 53.6246 49.8722 54.3582 49.8812 55.0917C49.8662 55.4932 49.7432 55.9701 49.6562 56.4109C49.5241 57.4885 49.3921 58.6024 49.2601 59.6801C49.1611 60.2204 49.062 60.7638 48.969 61.2709C48.831 62.1493 48.6569 63.0308 48.5549 63.873C48.1828 66.137 47.9788 68.3557 47.3067 70.6408C47.2527 70.8129 47.1956 71.0151 47.1386 71.2204C46.7335 72.3856 46.0374 72.9682 44.8462 73.2852L44.8492 73.2912ZM43.8379 56.6252C43.1448 56.6403 42.6227 57.1444 42.5387 57.8538C42.4247 58.53 42.3106 59.2061 42.2236 59.9125C42.1456 60.5525 42.0976 61.2226 42.0856 61.8595C41.9986 63.4021 41.6115 64.9657 41.3894 66.5173C41.2904 67.0577 41.2214 67.6312 41.2214 68.1655C41.2004 68.6002 41.6865 68.9353 42.0946 68.8387C42.3676 68.7511 42.6437 68.6666 42.9198 68.5459C43.2348 68.3889 43.4869 68.2048 43.5649 67.8335C43.6909 67.3233 43.7539 66.8162 43.8139 66.3121C43.907 65.8049 43.931 65.334 43.988 64.8631C44.102 64.1869 44.252 63.5077 44.3 62.8376C44.4231 61.5607 44.5101 60.2838 44.6001 59.0099C44.6541 58.3036 44.7081 57.567 44.5251 56.9089C44.3601 56.6523 44.135 56.601 43.8349 56.6222L43.8379 56.6252Z" fill="white"/>
<path d="M59.8947 70.8609C60.0897 71.4164 60.2998 72.1348 59.9037 72.6993C59.3456 73.5053 57.9953 73.5023 57.2031 73.5234C56.804 73.5506 56.345 73.5506 56.0449 73.303C55.8048 73.1189 55.7088 72.8261 55.6128 72.5333C55.2737 71.522 54.9347 70.5108 54.6346 69.4633C54.3165 68.5487 54.1455 67.5253 53.7584 66.6529C53.6504 67.2627 53.4794 67.8755 53.4043 68.4822C53.3083 69.8256 53.1733 71.2051 52.7772 72.5695C52.6122 73.1159 52.3061 73.4721 51.79 73.6411C50.8328 73.943 49.8906 74.109 49.0054 73.8041C48.5043 73.6049 48.3903 73.4479 48.4653 72.8412C48.6454 71.6247 48.8584 70.4081 49.0084 69.1614C49.1315 68.1502 49.1855 67.145 49.3085 66.1337C49.3415 65.5964 49.3715 65.0591 49.4705 64.5187C49.6266 63.7731 49.7826 63.0275 49.9386 62.2819C50.0046 62.0102 50.0406 61.7054 50.0766 61.4035C50.1187 59.9636 50.3617 58.5116 50.5988 57.0898C50.6138 56.954 50.6288 56.8544 50.6408 56.7517C50.8658 55.4326 51.0579 54.1164 51.2499 52.8003C51.3609 52.1573 51.4989 51.5476 51.835 50.9559C52.003 50.642 52.2311 50.3944 52.5132 50.2405C53.0083 49.9718 53.4884 49.8058 53.9805 49.8028C55.9069 49.6669 57.8063 49.4677 59.7236 49.3983C60.7169 49.3621 61.7791 49.5553 62.2742 50.3552C62.9853 51.5415 62.3882 53.4886 62.1181 54.9104C61.9141 56.0605 61.7791 57.1713 61.572 58.3214C61.44 59.1335 61.311 59.9425 60.9509 60.7364C60.6298 61.4941 60.0117 62.2397 59.2435 62.5928C58.8985 62.7166 58.5594 62.8072 58.2233 62.8645C58.1183 62.9038 58.0523 62.9098 57.9803 62.9822C57.8693 63.0909 57.9173 63.2207 57.9353 63.3535C57.9263 63.42 57.9563 63.4532 57.9473 63.5196C58.4664 66.022 59.0575 68.4853 59.8887 70.867L59.8947 70.8609ZM57.3952 56.9721C57.4522 56.5012 57.5422 56.0273 57.6052 55.5201C57.6322 55.2847 57.6652 55.016 57.6622 54.7806C57.6952 54.5119 57.5782 54.3851 57.3171 54.37C56.9601 54.3278 56.639 54.2493 56.3179 54.207C55.9909 54.198 55.6698 54.1195 55.3457 54.3428C54.8956 55.342 54.5236 57.8747 54.7006 58.5992C55.3517 58.6535 56.0239 58.2731 56.696 58.1584C57.1941 57.8566 57.3081 57.446 57.3982 56.9721H57.3952Z" fill="white"/>
<path d="M46.029 4.23024C46.005 4.43249 45.909 4.67398 45.882 4.90943C45.6779 6.59385 45.5039 8.31146 45.2938 10.0291C45.0658 11.9157 44.8677 13.8356 44.6037 15.7223C44.3486 17.2769 43.9976 18.8375 43.7395 20.4253C43.5505 21.4396 43.3944 22.4539 43.2384 23.4682C43.1694 23.773 43.0974 24.0809 43.0254 24.419C42.9503 24.7571 42.6893 25.0107 42.3472 25.1344C42.1072 25.219 41.9001 25.3005 41.6571 25.382C40.7929 25.711 39.9887 25.5661 39.2686 25.2492C38.5754 24.9986 38.3174 24.413 38.3504 23.5768C38.4644 21.2645 38.8185 18.9009 39.1035 16.5403C39.3436 14.8197 39.6557 13.0598 39.9317 11.3362C40.0217 10.8622 40.1448 10.3853 40.2768 9.84192C40.1658 9.95059 40.0938 9.98984 40.0187 10.0593C39.5206 10.6298 39.0615 11.1611 38.5664 11.7316C38.0683 12.3021 37.4712 12.3414 37.1051 11.8342C36.9431 11.5444 36.7811 11.2547 36.655 10.9317C36.493 10.6419 36.364 10.3521 36.235 10.0593C36.1989 10.0955 36.1629 10.0985 36.1299 10.0985C36.0849 10.4698 36.0399 10.8411 36.0009 11.1762C35.7309 13.1323 35.5328 15.0521 35.2327 16.975C35.1067 18.0195 34.8757 19.1062 34.6806 20.1869C34.4376 21.6419 34.1645 23.0969 33.9185 24.582C33.8615 24.7873 33.8045 24.9926 33.7504 25.1616C33.6544 25.4031 33.4984 25.6144 33.2583 25.6959C32.6312 25.9736 32.0071 26.2514 31.389 26.194C30.8998 26.1608 30.4498 26.0612 30.0087 25.8891C29.3815 25.6325 29.0485 25.1224 29.1085 24.3496C29.2855 21.2645 29.7206 18.1915 30.1647 15.0884C30.3777 13.6032 30.7228 12.1089 31.0019 10.6207C31.2629 9.26536 31.494 7.913 31.758 6.55762C31.9231 5.7456 32.0881 4.93056 32.3161 4.11251C32.3912 3.77442 32.5592 3.46048 32.7332 3.11333C32.9493 2.69676 33.3093 2.43715 33.7414 2.40697C34.4376 2.35867 35.1307 2.34357 35.7909 2.32848C35.8899 2.32244 35.9559 2.31641 36.0579 2.31037C36.559 2.24094 36.9011 2.41904 37.1561 2.7692C37.7143 3.59934 38.4164 4.31778 38.7585 5.29582C38.7885 5.32601 38.8215 5.32601 38.8785 5.38638C38.9565 5.28073 39.0645 5.20526 39.1816 5.06339C39.9587 4.07327 40.8919 3.17371 41.8161 2.34056C42.2182 2.01152 42.6113 1.7489 43.1064 1.7489C43.7995 1.7338 44.5317 1.68249 45.2188 1.7006C45.4829 1.68249 45.7049 1.76701 45.8309 1.82436C46.4671 2.54884 46.167 3.40312 46.035 4.21514L46.029 4.23024Z" fill="white"/>
<path d="M56.9323 8.80624C56.6622 8.85756 56.4132 9.00849 56.1761 9.05981C55.54 9.13829 54.9099 9.18357 54.2407 9.26206C53.8056 9.05981 53.6166 8.7036 53.6496 8.1693C53.6406 7.70141 53.6256 7.26974 53.5896 6.77166C52.8664 6.75657 52.1703 6.80487 51.3991 7.19427C51.3031 7.43577 51.1801 7.64406 51.1201 7.88253C51.0271 8.65832 50.934 9.4311 50.835 10.2401C51.0001 10.228 51.1351 10.219 51.3001 10.2069C51.9032 10.1314 52.5004 10.0892 53.1005 10.0137C54.0397 9.88088 54.5498 10.545 54.4598 11.2876C54.4148 11.9245 54.4388 12.5584 54.3938 13.1954C54.3488 13.5667 54.2707 13.938 54.1927 14.3123C54.0727 14.756 53.7696 15.076 53.3615 15.2058C53.0495 15.3265 52.7464 15.3809 52.4794 15.4352C52.0443 15.4986 51.6452 15.5258 51.2461 15.556C50.9761 15.6073 50.706 15.6616 50.4329 15.7461C50.3909 15.8156 50.3489 15.885 50.3429 15.9544L50.0129 18.6833C49.9738 19.287 50.2589 19.6342 50.883 19.6583C50.916 19.6583 50.9821 19.6523 51.0151 19.6493C51.3481 19.6251 51.6782 19.601 52.0413 19.61C52.4674 19.0787 52.3413 18.4871 52.6234 17.7988C52.7074 17.66 52.9175 17.5453 53.2235 17.4547C54.1477 17.1558 55.0779 17.0894 56.0081 17.026C56.4102 16.9657 56.6412 17.2494 56.8033 17.5392C56.9113 17.7324 56.9503 17.9649 56.9263 18.1671C56.9203 18.7678 56.9113 19.3715 56.8363 20.0115C56.7553 20.6847 56.6742 21.3578 56.5242 22.037C56.3922 22.5804 56.1071 23.0362 55.636 23.4015C54.5468 24.2467 52.9805 24.3886 51.7742 24.5757C50.3639 24.8081 49.0046 24.8715 47.6694 24.7629C46.9162 24.7146 46.1751 24.5999 45.671 24.135C45.0798 23.5765 44.9568 22.683 44.8968 21.8167C44.7408 20.3919 45.0558 18.8644 45.2029 17.3853C45.3529 15.8729 45.5359 14.3545 45.758 12.8029C45.929 11.6559 46.1691 10.5027 46.3731 9.35262C46.7332 7.18824 46.6702 4.72199 48.5395 2.88665C49.2507 2.16821 50.1599 1.73654 51.0481 1.47392C52.7194 0.987912 54.4628 0.999987 56.1251 0.882259C56.5902 0.849054 57.0463 0.882259 57.4694 0.921501C57.9915 0.951688 58.3576 1.19318 58.4956 1.68522C58.5916 1.97803 58.6847 2.30707 58.7807 2.59988C58.8677 2.96211 58.7537 3.36963 58.6426 3.74395C58.5796 3.98242 58.5556 4.18467 58.5286 4.42013C58.3606 5.53401 58.2226 6.6811 58.0875 7.79197C58.0755 7.89159 58.0305 7.99724 58.0185 8.09685C57.7124 8.45306 57.3854 8.70964 56.9443 8.80624H56.9323Z" fill="white"/>
</svg>
