<svg width="106" height="75" viewBox="0 0 106 75" fill="none" xmlns="http://www.w3.org/2000/svg">
<path d="M11.0306 50.2803C10.5235 50.3165 10.1604 50.4886 10.0854 51.0772C9.57831 54.1804 9.14022 57.2081 8.63312 60.3113C8.5611 60.8999 8.5611 61.558 8.41407 62.1527C8.12301 63.4145 7.03379 64.148 5.80053 64.0907C4.63929 64.0273 3.76611 62.9919 3.91314 61.7391C4.27621 58.7899 4.7113 55.7652 5.14639 52.8129C5.21841 52.5171 5.36544 52.2122 5.29042 51.9255C5.21841 51.7111 4.92735 51.4395 4.78332 51.4485C3.83812 51.4425 2.82391 51.6598 1.95073 51.5028C0.498432 51.3127 -0.227719 50.1958 0.0633417 48.8585C0.282387 47.6752 1.37161 47.0141 2.82391 46.9839C3.84112 46.9115 4.93035 46.6911 5.94756 46.3983C6.16661 46.3832 6.38265 45.9304 6.45467 45.6316C7.03679 41.7918 7.54389 38.0306 8.051 34.1939C8.19503 33.6716 7.97898 33.3939 7.46888 33.4301C6.52368 33.4965 5.6535 33.5569 4.7083 33.6233C3.256 33.726 2.23879 32.9924 2.23879 31.6069C2.23879 30.2907 3.18399 29.201 4.63629 29.1014C5.79753 28.9474 6.95877 28.8659 8.12301 28.8569C8.77715 28.8116 8.99319 28.5037 9.21224 27.903C10.3015 24.83 10.1574 21.6996 10.7366 18.518C10.8806 17.8508 10.9556 17.1867 11.0996 16.5196C11.3907 15.4027 12.4079 14.5997 13.4221 14.6028C14.5113 14.6722 15.4565 15.4812 15.4565 16.6524C15.5285 17.232 15.3845 17.8267 15.3125 18.4878C15.0935 20.622 14.8054 22.8346 14.5143 25.0473C14.3703 26.0073 14.0792 26.9038 13.8602 27.8698C13.7882 28.3135 13.7162 28.6124 14.2953 28.5701C16.1827 28.5097 18.0701 28.4493 19.9605 28.3165C20.5426 28.3497 20.8306 28.0358 20.9057 27.4472C21.4128 23.7583 21.9949 20.139 22.502 16.4502C22.646 14.9771 23.5192 13.8934 24.7525 13.8088C26.0607 13.7907 27.15 14.7356 27.0029 16.2087C26.7839 18.5602 26.4208 20.9238 26.0577 23.2874C25.9137 24.4677 25.7667 25.5726 25.6226 26.7529C25.4786 27.3475 25.7667 27.6192 26.3488 27.5045C27.0029 27.4592 27.582 27.417 28.1642 27.4502C29.6165 27.42 30.5617 28.4493 30.4146 29.7021C30.3426 31.0212 29.2534 32.0476 27.8731 32.0717C27.0749 32.1291 26.2018 32.1895 25.4036 32.1714C24.7495 32.1442 24.3864 32.4611 24.2423 33.2037C23.7352 36.8925 23.1531 40.5874 22.571 44.3516C22.499 44.8678 22.571 45.1546 23.2251 45.1093C24.3144 44.9584 25.3316 44.889 26.4208 44.6656C27.8731 44.3426 29.0343 44.9916 29.2534 46.3651C29.4724 47.8835 28.5993 49.1151 27.1469 49.3626C25.6946 49.5377 24.1703 49.6464 22.718 49.6735C21.9199 49.7309 21.7008 50.0358 21.5568 50.7784C21.1217 53.7306 20.5396 56.6225 20.0325 59.5053C19.9605 60.1664 19.8134 60.7641 19.7414 61.4252C19.5224 62.7564 18.7242 63.6167 17.563 63.8431C16.4737 63.9941 15.6756 63.3903 15.1655 62.2583C14.7304 61.2652 14.7304 60.3173 15.3845 59.3212C15.4565 59.1702 15.5285 58.9469 15.6036 58.7929C16.1107 56.1999 16.5488 53.6129 17.0559 51.0199C17.1999 50.1324 16.8368 49.7943 16.0387 49.9241C15.2405 50.0539 14.3673 50.0418 13.5691 50.0992C12.771 50.1565 11.8978 50.2169 11.0276 50.2773L11.0306 50.2803ZM16.9838 45.3327C17.638 45.2874 17.854 44.9795 18.0011 44.3848C18.5082 40.8409 19.0903 37.294 19.5974 33.7531C19.6694 33.3094 19.5974 33.0226 19.0153 32.9894C17.1999 33.1162 15.3845 33.0981 13.5691 33.2279C13.2781 33.249 12.771 33.7229 12.699 34.0188C12.1168 37.6412 11.6097 41.3269 11.1026 44.9433C11.0306 45.4595 11.1746 45.6678 11.7568 45.6285C12.6269 45.5682 13.5721 45.5018 14.4423 45.4384C15.3125 45.375 16.1137 45.3206 16.9838 45.3327Z" fill="#9898FC"/>
<path d="M34.7686 34.1634C35.0927 33.1038 35.3898 32.0141 35.7168 30.9576C35.7829 30.6859 35.8849 30.378 35.9839 30.1033C36.1849 29.5207 36.383 28.9743 36.62 28.3887C36.8151 27.8725 37.0131 27.3261 37.2112 26.7767C37.3132 26.4688 37.4422 26.2243 37.7963 26.0341C38.9545 25.9858 40.2358 25.7292 41.391 25.9828C41.6161 26.0341 41.8021 26.1217 41.9881 26.2092C41.9611 26.4447 41.9401 26.6137 41.9191 26.7828C41.9071 26.8824 41.8651 26.9548 41.8561 27.0212C41.475 27.9842 41.259 28.9683 40.9769 29.9222C40.6019 31.3832 40.1998 32.8171 39.7917 34.2811C39.4166 35.4765 39.0415 36.6719 38.6665 37.8673C38.1533 39.3736 37.6402 40.9131 37.1901 42.4466C36.8601 43.5393 36.467 44.6019 36.0469 45.6343C36.0049 45.7037 35.9929 45.8063 35.9509 45.8758C35.3508 46.7542 34.9637 47.7836 34.4836 48.7526C34.1835 49.3412 33.7604 49.5706 33.1993 49.5767C32.8062 49.5706 32.4012 49.634 31.9991 49.6944C31.564 49.7578 31.2489 49.6461 31.0179 49.3623C30.9959 49.3623 30.9859 49.3523 30.9879 49.3321C30.2947 48.8129 29.9586 48.0341 29.8446 47.0742C29.7906 46.4433 29.5926 45.8878 29.4695 45.263C29.2445 44.1431 29.0525 42.9869 28.8604 41.864C28.6954 40.7742 28.5994 39.6785 28.3953 38.6219C28.2153 37.665 28.1043 36.6719 28.0563 35.7059C28.0142 34.9754 27.9362 34.2449 27.7892 33.5536C27.7052 32.8925 27.6902 32.1922 27.6722 31.5251C27.6242 30.5591 27.5762 29.5931 27.5281 28.6272C27.4831 27.3623 28.2963 26.3692 29.4605 26.2545C30.0577 26.2122 30.6608 26.1368 31.2909 26.0915C31.9211 26.0462 32.3081 26.3873 32.3591 27.0514C32.3952 27.8514 32.6022 28.5698 32.7372 29.3637C32.8933 29.9886 32.9443 30.6527 33.0313 31.2806C33.0733 31.4768 33.0793 31.7122 33.1243 31.8752C33.4184 32.9891 33.6014 34.1815 33.7244 35.3407C33.7424 35.7391 33.8295 36.1014 33.8835 36.4666C33.9165 36.4666 33.9495 36.4606 33.9885 36.4274C34.2435 35.6757 34.5016 34.9211 34.7566 34.1694L34.7686 34.1634Z" fill="#FF5D02"/>
<path d="M50.7289 47.5408C50.4319 48.0963 49.8048 48.374 49.2196 48.5823C48.5025 48.7996 47.7643 48.9173 47.0712 48.9355C46.7711 48.9566 46.5101 48.9415 46.261 48.8268C45.949 48.6819 45.7449 48.4615 45.6129 48.2049C45.2948 47.559 45.3818 46.8526 45.4719 46.11C45.5079 45.8081 45.4839 45.4761 45.2378 45.3251C45.0848 45.2346 44.8837 45.2497 44.6527 45.2648C44.1216 45.301 43.5905 45.3402 43.0594 45.3765C42.8943 45.3885 42.6933 45.4006 42.5192 45.4821C42.2012 45.6723 42.0571 46.0496 41.9161 46.3937C41.577 47.2873 41.0159 48.6608 40.0737 49.0954C39.6867 49.2886 39.2846 49.352 38.9215 49.3762C38.3904 49.4124 37.8923 49.4486 37.3702 49.4184C37.0431 49.4094 36.686 49.3671 36.443 49.183C36.1429 48.9355 36.0679 48.4736 36.1159 48.0691C36.2959 46.8526 36.8421 45.6119 37.2802 44.4467C37.9853 42.6929 38.6874 40.9722 39.3326 39.1912C39.9057 37.7151 40.2838 36.2178 40.7579 34.7478C41.5951 32.1849 42.4682 29.5828 43.5635 27.0683C43.6955 26.7906 43.8335 26.4797 44.0256 26.2321C44.4426 25.7673 45.0608 25.559 45.6339 25.4503C46.276 25.3054 46.9452 25.2239 47.5753 25.1816C48.3044 25.1303 49.0906 25.1756 49.5617 25.6435C50.0628 26.1446 50.0868 27.0109 50.0928 27.7777C50.1198 28.644 50.2218 29.4379 50.2518 30.2711C50.2668 31.2401 50.1798 32.2121 50.3329 33.1388C50.4559 33.7637 50.4769 34.3976 50.5309 35.0285C50.5639 35.5598 50.6329 36.0911 50.6989 36.6193C50.888 38.0411 50.7109 39.5233 50.828 40.9873C50.984 42.6808 51.038 44.4135 51.023 46.1855C51.002 46.6201 51.008 47.1212 50.7259 47.5439L50.7289 47.5408ZM45.4328 40.6975C45.5109 39.7889 45.5199 38.8863 45.4929 38.02C45.4719 37.3861 45.3788 36.7914 45.3218 36.1605C45.3218 36.1605 45.2888 36.1605 45.2558 36.1665C45.0908 36.1786 44.4306 38.0955 44.3436 38.2675C43.9805 39.0946 43.6175 39.9217 43.4824 40.767C43.4314 40.9058 43.4164 41.0386 43.5034 41.1322C43.5905 41.2258 43.7225 41.2167 43.8905 41.2047C44.2566 41.1805 44.6497 41.1835 45.0158 41.1594C45.0818 41.1534 45.1478 41.1503 45.2198 41.1111C45.3608 41.0356 45.4478 40.8605 45.4358 40.6945L45.4328 40.6975Z" fill="#FF5D02"/>
<path d="M58.0781 30.353C57.874 30.6669 57.772 30.9748 57.73 31.3129C57.619 32.4902 57.511 33.6675 57.436 34.8417C57.3699 35.6477 57.439 36.4446 57.3759 37.2506C57.3129 38.3252 57.1449 39.4391 57.0459 40.5138C56.9889 40.9847 56.9348 41.4224 56.9108 41.8933C56.9048 42.494 57.2289 42.8049 57.823 42.7989C58.1891 42.7717 58.5882 42.7446 58.9513 42.7204C59.1703 42.5393 59.2663 42.2978 59.2993 42.0291C59.3684 41.4556 59.4374 40.8851 59.5124 40.2783C59.5244 39.91 59.6924 39.5961 60.0465 39.4059C60.8267 38.9501 61.6098 38.7267 62.42 38.8384C63.2962 38.9441 63.8213 39.5086 63.8723 40.4413C63.9143 41.1718 63.8603 41.9114 63.7373 42.654C63.6352 43.2306 63.5932 43.8343 63.5242 44.4048C63.4852 45.0086 63.4492 45.5791 63.0801 46.1738C62.7951 46.6266 62.423 46.9888 61.9309 47.2242C59.8665 48.2385 57.613 48.0966 55.5576 48.2083C54.9934 48.2476 54.3963 48.2898 53.8832 48.16C52.896 47.8944 52.2359 47.0733 51.9238 46.1255C51.6057 45.2108 51.6027 44.1422 51.6358 43.0736C51.6538 40.1998 51.9058 37.308 52.3559 34.404C52.602 32.9158 52.881 31.4276 53.1931 29.9364C53.4721 28.7138 53.5772 27.3041 54.1113 26.1631C54.2853 25.8159 54.5134 25.5684 54.8314 25.3782C56.6048 24.3187 58.6542 24.542 60.4756 24.4454C61.5018 24.4062 62.525 24.367 63.4432 24.6718C66.0057 25.5261 64.9765 28.6052 64.7275 30.9295C64.6585 31.7687 64.2204 32.4026 63.4792 32.8222C62.8071 33.2026 62.1139 33.4863 61.4148 33.5678C60.9167 33.6041 60.5086 33.432 60.1815 33.1543C59.8875 32.8735 59.9055 32.4389 60.0255 31.9951C60.2415 31.3129 60.2265 30.6126 60.2445 29.9092C59.4854 29.9304 58.7862 29.9787 58.0841 30.362L58.0781 30.353Z" fill="#FF5D02"/>
<path d="M71.7517 24.5471C71.5866 25.6278 71.3916 26.7115 71.2266 27.7922C71.1215 28.6676 71.0525 29.5068 70.9445 30.3852C70.8995 30.7565 70.8935 31.0916 70.8155 31.4629C70.5964 32.447 70.5124 33.422 70.4944 34.391C70.4644 35.4626 70.2724 36.5101 70.0743 37.5938C69.8973 38.5084 69.7923 39.3838 69.6482 40.2955C69.5432 40.9052 69.6632 41.2645 70.4404 41.3762C70.7135 41.2886 71.0225 41.2011 71.2986 41.0833C71.6797 40.9234 71.9737 40.6668 72.0307 40.1959C72.1117 39.5227 72.2258 38.8465 72.3128 38.1371C72.4148 37.5606 72.5138 37.0202 72.6158 36.4467C72.6699 36.009 72.6849 35.6075 72.7329 35.203C72.8709 34.0589 73.0089 32.9118 73.1199 31.7346C73.36 29.4796 73.468 27.2337 74.1012 24.9848C74.2242 24.5079 74.3802 24.0309 74.7493 23.7019C75.1214 23.3427 75.6945 23.234 76.1926 23.1978C76.9547 23.1434 77.8039 23.2189 78.26 23.7864C78.7191 24.3569 78.6411 25.2625 78.5421 26.0715C78.23 28.3657 77.7919 30.6327 77.5189 32.8907C77.3838 33.7359 77.2518 34.5479 77.1168 35.3901C77.0808 35.692 77.0148 35.9667 76.9787 36.2686C76.9367 36.6067 76.9337 36.9055 76.9307 37.2074C76.9307 37.476 76.9307 37.7749 76.8947 38.0466C76.5797 40.1053 76.1746 42.3723 75.3074 44.3707C75.1664 44.7148 74.9923 45.0619 74.7613 45.3457C74.0231 46.2664 72.8619 46.6165 71.8207 46.7886C70.8095 46.9939 69.8073 47.0965 68.7841 47.1357C68.0519 47.1871 67.2987 47.172 66.6386 46.9184C65.5704 46.4928 64.9463 45.4 64.6942 44.2167C64.4722 43.0636 64.6282 41.7837 64.7482 40.5038C64.9103 38.8888 65.0723 37.2738 65.3303 35.686C65.5974 34.0318 65.9545 32.4349 66.3505 30.8048C66.4316 30.3973 66.4856 29.9596 66.5666 29.5521C66.7016 28.7068 66.8366 27.8616 67.0047 27.0164C67.0377 26.7477 67.1397 26.4398 67.2717 26.1621C67.5328 25.6429 67.8209 25.1539 68.1389 24.6981C68.541 24.1034 69.0721 23.7985 69.7683 23.7472C70.3984 23.7019 71.0255 23.6928 71.5626 23.8891C71.7397 24.043 71.7787 24.2754 71.7457 24.5441L71.7517 24.5471Z" fill="#FF5D02"/>
<path d="M83.9729 31.5712C83.7449 33.4579 83.5529 35.3083 83.2618 37.1678C83.1268 38.2787 82.8927 39.3986 82.6917 40.5155C82.4516 41.9675 82.1756 43.4255 81.9325 44.8775C81.9205 44.9771 81.8785 45.0495 81.8665 45.1491C81.7645 45.7257 81.4584 46.0789 80.8763 46.254C80.3992 46.3868 79.8741 46.6585 79.421 46.589C78.9019 46.5256 78.4158 46.4592 77.9807 46.257C77.3506 46.0336 77.0535 45.4872 77.0775 44.7507C77.2876 41.6626 77.7257 38.5926 78.1277 35.5226C78.3528 33.9378 78.7069 32.3742 79.0309 30.7833C79.319 29.4944 79.511 28.1782 79.7691 26.8561C79.9341 26.044 80.1352 25.1928 80.3332 24.3777C80.4352 24.0698 80.6063 23.7589 80.7383 23.4812C80.9483 23.0978 81.2394 22.8775 81.6415 22.8171C82.5117 22.6903 83.3758 22.6269 84.216 22.7688C84.378 22.7899 84.5011 22.8503 84.6301 22.8745C85.1312 23.9068 85.5303 24.9483 86.0734 25.9142C86.6165 26.8772 87.2676 27.7345 87.9428 28.6884C87.9668 28.4861 88.0178 28.3503 88.0328 28.2145C88.2248 27.164 88.3899 26.0833 88.5819 25.0358C88.7289 24.3566 88.879 23.6804 89.254 23.0163C89.5091 22.5303 89.8752 22.2375 90.4093 22.1681C91.2105 22.0775 92.0026 22.0564 92.7798 22.1681C92.9418 22.1892 93.1008 22.2466 93.1939 22.2737C93.803 22.965 93.4999 23.8223 93.3649 24.6675C93.3079 24.8728 93.2449 25.1113 93.2179 25.3467C93.0138 27.0311 92.8428 28.7125 92.6357 30.4332C92.4077 32.3198 92.2097 34.2367 91.9426 36.1596C91.6845 37.7474 91.3935 39.3382 91.0394 40.9019C90.8174 41.9192 90.7994 42.8882 90.5773 43.9085C90.5083 44.2134 90.4333 44.5545 90.3583 44.8926C90.2923 45.1642 90.1032 45.3786 89.8572 45.4963C89.2691 45.7378 88.6419 46.0155 88.0538 45.9913C87.5347 45.928 87.0156 45.8646 86.5805 45.6623C85.9204 45.4087 85.6233 44.8593 85.6893 44.0534C85.8573 41.3034 86.2954 38.499 86.6015 35.7038C86.6165 35.5679 86.6045 35.4019 86.5505 35.3053C86.1244 34.4661 85.7733 33.5545 85.2422 32.7907C84.8521 32.2172 84.6031 31.532 84.288 30.886C84.264 30.8196 84.204 30.7592 84.147 30.6958L84.081 30.7018C84.045 31.0037 84.009 31.3086 83.976 31.5772L83.9729 31.5712Z" fill="#FF5D02"/>
<path d="M100.971 44.2728C100.191 44.463 99.426 44.5143 98.6608 44.6018C97.7576 44.7316 96.8364 44.9973 95.9333 45.0939C95.0301 45.2237 94.0819 45.1573 93.4127 44.7045C92.6476 44.2245 92.2935 43.3461 92.1735 42.4193C92.0564 41.4926 92.1735 40.5146 92.2905 39.5365C92.4945 37.8521 92.7316 36.1647 93.0016 34.4742C93.1937 33.1581 93.4817 31.8691 93.7368 30.5802C93.9258 29.5659 94.1449 28.5818 94.3309 27.5645C94.4509 26.8551 94.574 26.1095 94.691 25.4001C94.754 25.1617 94.814 24.9232 94.937 24.7149C95.1981 24.1957 95.4591 23.6765 95.7772 23.2207C96.2243 22.5203 96.9265 22.1702 97.6316 22.0555C98.8078 21.8713 99.9751 21.7234 101.121 21.7777C101.811 21.7959 102.505 21.7808 103.189 21.8321C103.744 21.8592 104.293 21.9558 104.842 22.0494C105.223 22.1551 105.49 22.4056 105.61 22.7648C105.694 23.1603 105.814 23.5195 105.865 23.915C105.946 24.6092 105.988 25.3428 106 26.0763C105.985 26.4778 105.862 26.9547 105.775 27.3955C105.643 28.4731 105.511 29.587 105.379 30.6647C105.28 31.205 105.181 31.7484 105.088 32.2555C104.95 33.1339 104.776 34.0154 104.674 34.8576C104.302 37.1216 104.098 39.3403 103.426 41.6254C103.372 41.7975 103.315 41.9997 103.258 42.205C102.853 43.3702 102.157 43.9528 100.968 44.2698L100.971 44.2728ZM99.9601 27.6068C99.2669 27.6219 98.7448 28.126 98.6608 28.8354C98.5468 29.5115 98.4328 30.1877 98.3457 30.8971C98.2677 31.5371 98.2197 32.2072 98.2077 32.8441C98.1207 34.3867 97.7336 35.9504 97.5116 37.5019C97.4126 38.0423 97.3435 38.6158 97.3435 39.1501C97.3225 39.5848 97.8116 39.9199 98.2167 39.8233C98.4898 39.7357 98.7658 39.6512 99.0419 39.5305C99.357 39.3735 99.609 39.1894 99.687 38.8181C99.813 38.3079 99.8761 37.8038 99.9361 37.2967C100.032 36.7895 100.053 36.3186 100.11 35.8477C100.224 35.1715 100.374 34.4923 100.422 33.8222C100.545 32.5453 100.632 31.2684 100.722 29.9915C100.773 29.2852 100.83 28.5486 100.647 27.8935C100.482 27.637 100.257 27.5856 99.9571 27.6068H99.9601Z" fill="#FF5D02"/>
<path d="M36.2719 52.7526C36.2509 54.0235 36.1639 55.2672 35.9449 56.5501C35.7858 57.5976 35.5548 58.6813 35.3297 59.7348C35.1827 60.414 34.9727 61.063 34.8286 61.709C34.5166 62.9346 33.5264 64.0394 32.3051 64.3262C31.597 64.4771 30.8558 64.5949 30.1237 64.6794C29.6226 64.7488 29.0915 64.785 28.5934 64.8212C28.4553 64.8635 28.3233 64.8726 28.1523 64.9178C28.1373 65.0537 28.0892 65.1563 28.0772 65.2559C27.9572 65.9653 27.8342 66.7079 27.7172 67.4203C27.6722 67.7916 27.5941 68.1629 27.5491 68.5342C27.4261 69.5454 27.3331 70.5869 27.1741 71.6344C27.069 72.2441 26.928 72.8539 26.787 73.4667C26.655 74.01 26.3189 74.3361 25.8058 74.5051C24.8816 74.804 23.9394 74.97 23.0542 74.6651C22.6101 74.5293 22.3431 74.2817 22.3341 73.8138C22.3161 73.4154 22.298 73.0139 22.3161 72.6124C22.4301 69.7658 22.9102 66.892 23.2522 64.0605C23.4833 62.1407 23.9484 60.2027 24.3805 58.2677C24.4615 57.8602 24.5395 57.4889 24.5905 57.0844C24.7706 56.1366 24.8816 55.2279 25.0946 54.2771C25.1966 53.7035 25.3707 53.0877 25.5387 52.5081C25.6377 52.2334 25.7698 51.9587 25.9348 51.678C26.0638 51.4365 26.2829 51.2524 26.5259 51.1346C27.057 50.8298 27.6332 50.6909 28.1973 50.6486C30.0937 50.4826 31.945 50.4192 33.8054 50.5551C34.4566 50.6094 35.0567 50.8358 35.5338 51.2343C35.7138 51.3882 35.8969 51.509 36.0739 51.6629C36.2659 51.9829 36.2869 52.3481 36.2719 52.7526ZM32.2751 56.6739C32.3201 56.3026 32.3651 55.9313 32.4071 55.5962C32.4642 55.1253 32.3891 54.9291 31.933 54.8959C31.2849 54.8084 30.6248 54.8204 29.9976 54.8325C29.6706 54.8234 29.4425 55.071 29.3645 55.4453C29.2985 55.717 29.2325 55.9887 29.1995 56.2603C29.0705 56.7705 28.9774 57.2776 28.8844 57.7848C28.7494 58.3613 28.6834 58.9017 28.5813 59.4752C28.4493 60.0186 28.6744 60.3385 29.2025 60.3325C29.6316 60.3355 30.0667 60.2721 30.5047 60.1725C31.2819 60.0186 31.657 59.6231 31.852 58.8413C32.0381 58.1259 32.1611 57.3833 32.3111 56.6709H32.2781L32.2751 56.6739Z" fill="#9898FC"/>
<path d="M43.9654 72.4224C43.1852 72.6096 42.423 72.6639 41.6549 72.7515C40.7487 72.8813 39.8305 73.1469 38.9273 73.2435C38.0241 73.3733 37.0759 73.3069 36.4068 72.8541C35.6416 72.3741 35.2876 71.4957 35.1705 70.569C35.0535 69.6422 35.1705 68.6642 35.2876 67.6892C35.4916 66.0048 35.7287 64.3173 35.9987 62.6269C36.1908 61.3107 36.4788 60.0218 36.7339 58.7328C36.9229 57.7185 37.139 56.7345 37.328 55.7172C37.445 55.0078 37.568 54.2652 37.6881 53.5528C37.7511 53.3143 37.8111 53.0758 37.9371 52.8675C38.1982 52.3483 38.4592 51.8291 38.7773 51.3703C39.2244 50.67 39.9265 50.3198 40.6287 50.2051C41.8049 50.021 42.9752 49.873 44.1184 49.9244C44.8085 49.9425 45.5017 49.9274 46.1858 49.9787C46.7409 50.0059 47.2901 50.1025 47.8392 50.196C48.2202 50.3017 48.4873 50.5522 48.6103 50.9115C48.6943 51.3069 48.8144 51.6661 48.8654 52.0616C48.9464 52.7559 48.9884 53.4894 48.9974 54.2229C48.9824 54.6244 48.8594 55.1014 48.7724 55.5421C48.6403 56.6197 48.5083 57.7336 48.3763 58.8113C48.2773 59.3516 48.1782 59.895 48.0852 60.4021C47.9472 61.2806 47.7732 62.162 47.6711 63.0042C47.2991 65.2682 47.095 67.4869 46.4229 69.772C46.3689 69.9441 46.3119 70.1464 46.2548 70.3516C45.8498 71.5168 45.1536 72.0994 43.9624 72.4164L43.9654 72.4224ZM42.9542 55.7564C42.261 55.7715 41.7389 56.2756 41.6549 56.985C41.5409 57.6612 41.4268 58.3374 41.3398 59.0437C41.2618 59.6837 41.2138 60.3538 41.2018 60.9908C41.1148 62.5333 40.7277 64.097 40.5056 65.6486C40.4066 66.1889 40.3376 66.7624 40.3376 67.2967C40.3166 67.7314 40.8027 68.0665 41.2108 67.9699C41.4839 67.8824 41.7599 67.7978 42.036 67.6771C42.351 67.5201 42.6031 67.336 42.6811 66.9647C42.8071 66.4545 42.8701 65.9474 42.9302 65.4433C43.0232 64.9361 43.0472 64.4652 43.1042 63.9943C43.2182 63.3181 43.3682 62.6389 43.4163 61.9688C43.5393 60.6919 43.6263 59.415 43.7163 58.1411C43.7703 57.4348 43.8243 56.6982 43.6413 56.0402C43.4763 55.7836 43.2512 55.7323 42.9512 55.7534L42.9542 55.7564Z" fill="#9898FC"/>
<path d="M59.0099 69.9919C59.205 70.5474 59.415 71.2658 59.0189 71.8303C58.4608 72.6363 57.1105 72.6333 56.3184 72.6544C55.9193 72.6816 55.4602 72.6816 55.1601 72.434C54.9201 72.2499 54.8241 71.9571 54.728 71.6643C54.389 70.653 54.0499 69.6418 53.7498 68.5943C53.4318 67.6796 53.2607 66.6563 52.8736 65.7839C52.7656 66.3937 52.5946 67.0065 52.5196 67.6132C52.4236 68.9565 52.2885 70.3361 51.8924 71.7005C51.7274 72.2469 51.4213 72.6031 50.9052 72.7721C49.948 73.074 49.0058 73.24 48.1207 72.9351C47.6196 72.7359 47.5055 72.5789 47.5806 71.9722C47.7606 70.7556 47.9736 69.5391 48.1237 68.2924C48.2467 67.2812 48.3007 66.276 48.4237 65.2647C48.4567 64.7274 48.4867 64.1901 48.5858 63.6497C48.7418 62.9041 48.8978 62.1585 49.0539 61.4129C49.1199 61.1412 49.1559 60.8363 49.1919 60.5345C49.2339 59.0946 49.4769 57.6426 49.714 56.2208C49.729 56.085 49.744 55.9854 49.756 55.8827C49.981 54.5636 50.1731 53.2474 50.3651 51.9313C50.4761 51.2883 50.6142 50.6785 50.9502 50.0869C51.1183 49.773 51.3463 49.5254 51.6284 49.3715C52.1235 49.1028 52.6036 48.9368 53.0957 48.9338C55.0221 48.7979 56.9215 48.5987 58.8389 48.5293C59.8321 48.493 60.8943 48.6862 61.3894 49.4862C62.1006 50.6725 61.5034 52.6195 61.2334 54.0413C61.0293 55.1914 60.8943 56.3023 60.6873 57.4524C60.5552 58.2644 60.4262 59.0734 60.0661 59.8673C59.7451 60.625 59.1269 61.3706 58.3588 61.7238C58.0137 61.8476 57.6746 61.9382 57.3386 61.9955C57.2336 62.0347 57.1675 62.0408 57.0955 62.1132C56.9845 62.2219 57.0325 62.3517 57.0505 62.4845C57.0415 62.5509 57.0715 62.5841 57.0625 62.6506C57.5816 65.153 58.1727 67.6162 59.0039 69.998L59.0099 69.9919ZM56.5104 56.1031C56.5674 55.6322 56.6574 55.1582 56.7204 54.6511C56.7475 54.4157 56.7805 54.147 56.7775 53.9115C56.8105 53.6429 56.6934 53.5161 56.4324 53.501C56.0753 53.4587 55.7542 53.3802 55.4332 53.338C55.1061 53.3289 54.785 53.2504 54.461 53.4738C54.0109 54.473 53.6388 57.0057 53.8158 57.7301C54.467 57.7845 55.1391 57.4041 55.8113 57.2894C56.3094 56.9875 56.4234 56.577 56.5134 56.1031H56.5104Z" fill="#9898FC"/>
<path d="M45.1452 3.36158C45.1212 3.56383 45.0252 3.80533 44.9982 4.04078C44.7941 5.72519 44.6201 7.44281 44.41 9.16043C44.182 11.0471 43.984 12.967 43.7199 14.8536C43.4648 16.4082 43.1138 17.9689 42.8557 19.5567C42.6667 20.571 42.5106 21.5852 42.3546 22.5995C42.2856 22.9044 42.2136 23.2123 42.1416 23.5504C42.0666 23.8885 41.8055 24.142 41.4634 24.2658C41.2234 24.3503 41.0163 24.4318 40.7733 24.5133C39.9091 24.8424 39.1049 24.6975 38.3848 24.3805C37.6917 24.13 37.4336 23.5443 37.4666 22.7082C37.5806 20.3959 37.9347 18.0323 38.2198 15.6717C38.4598 13.951 38.7719 12.1912 39.0479 10.4675C39.1379 9.99358 39.261 9.51663 39.393 8.97327C39.282 9.08194 39.21 9.12118 39.135 9.19061C38.6368 9.76114 38.1778 10.2924 37.6826 10.863C37.1845 11.4335 36.5874 11.4727 36.2213 10.9656C36.0593 10.6758 35.8973 10.386 35.7713 10.063C35.6092 9.77321 35.4802 9.48342 35.3512 9.19061C35.3152 9.22684 35.2792 9.22986 35.2461 9.22986C35.2011 9.60115 35.1561 9.97245 35.1171 10.3075C34.8471 12.2636 34.649 14.1835 34.349 16.1064C34.2229 17.1508 33.9919 18.2375 33.7968 19.3182C33.5538 20.7732 33.2807 22.2282 33.0347 23.7134C32.9777 23.9186 32.9207 24.1239 32.8666 24.293C32.7706 24.5345 32.6146 24.7458 32.3745 24.8273C31.7474 25.105 31.1233 25.3827 30.5052 25.3253C30.0161 25.2921 29.566 25.1925 29.1249 25.0205C28.4977 24.7639 28.1647 24.2537 28.2247 23.4809C28.4017 20.3959 28.8368 17.3229 29.2809 14.2197C29.494 12.7345 29.839 11.2403 30.1181 9.75208C30.3791 8.39671 30.6102 7.04435 30.8742 5.68897C31.0393 4.87695 31.2043 4.06191 31.4324 3.24386C31.5074 2.90577 31.6754 2.59183 31.8494 2.24468C32.0655 1.8281 32.4256 1.5685 32.8576 1.53831C33.5538 1.49001 34.2469 1.47492 34.9071 1.45983C35.0061 1.45379 35.0721 1.44775 35.1741 1.44172C35.6752 1.37229 36.0173 1.55039 36.2724 1.90055C36.8305 2.73068 37.5326 3.44912 37.8747 4.42717C37.9047 4.45736 37.9377 4.45736 37.9947 4.51773C38.0727 4.41208 38.1808 4.33661 38.2978 4.19473C39.0749 3.20461 40.0081 2.30505 40.9323 1.4719C41.3344 1.14287 41.7275 0.880246 42.2226 0.880246C42.9157 0.865152 43.6479 0.813835 44.335 0.831947C44.5991 0.813835 44.8211 0.898358 44.9472 0.955712C45.5833 1.68019 45.2832 2.53447 45.1512 3.34649L45.1452 3.36158Z" fill="#9898FC"/>
<path d="M56.0495 7.93759C55.7794 7.9889 55.5304 8.13984 55.2933 8.19115C54.6572 8.26964 54.0271 8.31492 53.3579 8.3934C52.9228 8.19115 52.7338 7.83495 52.7668 7.30065C52.7578 6.83276 52.7428 6.40109 52.7068 5.90301C51.9836 5.88792 51.2875 5.93622 50.5163 6.32562C50.4203 6.56712 50.2973 6.7754 50.2373 7.01388C50.1443 7.78967 50.0512 8.56245 49.9522 9.37145C50.1172 9.35938 50.2523 9.35032 50.4173 9.33824C51.0204 9.26278 51.6176 9.22052 52.2177 9.14505C53.1569 9.01223 53.667 9.67633 53.577 10.4189C53.532 11.0559 53.556 11.6898 53.511 12.3267C53.4659 12.698 53.3879 13.0693 53.3099 13.4436C53.1899 13.8874 52.8868 14.2073 52.4787 14.3371C52.1667 14.4579 51.8636 14.5122 51.5966 14.5666C51.1615 14.63 50.7624 14.6571 50.3633 14.6873C50.0932 14.7386 49.8232 14.793 49.5501 14.8775C49.5081 14.9469 49.4661 15.0163 49.4601 15.0858L49.13 17.8146C49.091 18.4184 49.3761 18.7655 50.0002 18.7897C50.0332 18.7897 50.0992 18.7836 50.1322 18.7806C50.4653 18.7565 50.7954 18.7323 51.1585 18.7414C51.5845 18.2101 51.4585 17.6184 51.7406 16.9302C51.8246 16.7913 52.0346 16.6766 52.3407 16.586C53.2649 16.2872 54.1951 16.2208 55.1253 16.1574C55.5274 16.097 55.7584 16.3808 55.9205 16.6706C56.0285 16.8638 56.0675 17.0962 56.0435 17.2984C56.0375 17.8992 56.0285 18.5029 55.9535 19.1428C55.8724 19.816 55.7914 20.4892 55.6414 21.1684C55.5094 21.7117 55.2243 22.1675 54.7532 22.5328C53.664 23.378 52.0977 23.5199 50.8914 23.7071C49.4811 23.9395 48.1218 24.0029 46.7866 23.8942C46.0334 23.8459 45.2922 23.7312 44.7881 23.2663C44.197 22.7079 44.074 21.8144 44.014 20.948C43.8579 19.5232 44.173 17.9958 44.32 16.5166C44.4701 15.0043 44.6531 13.4859 44.8752 11.9343C45.0462 10.7872 45.2862 9.63407 45.4903 8.48396C45.8504 6.31959 45.7873 3.85334 47.6567 2.018C48.3679 1.29956 49.2771 0.867887 50.1653 0.605264C51.8366 0.11926 53.58 0.131334 55.2423 0.0136065C55.7074 -0.0195988 56.1635 0.0136065 56.5866 0.0528491C57.1087 0.0830356 57.4748 0.324528 57.6128 0.81657C57.7088 1.10938 57.8018 1.43841 57.8979 1.73122C57.9849 2.09346 57.8709 2.50098 57.7598 2.8753C57.6968 3.11377 57.6728 3.31602 57.6458 3.55148C57.4778 4.66536 57.3397 5.81245 57.2047 6.92332C57.1927 7.02293 57.1477 7.12859 57.1357 7.2282C56.8296 7.5844 56.5026 7.84099 56.0615 7.93759H56.0495Z" fill="#9898FC"/>
</svg>
