<svg width="65" height="171" viewBox="0 0 65 171" fill="none" xmlns="http://www.w3.org/2000/svg">
<g clip-path="url(#clip0_1956_21066)">
<path d="M44.0254 170.703L65 170.703L54.5127 160.216L44.0254 170.703Z" fill="#FF5722"/>
<path d="M44.0254 135.165L65 135.165L54.5127 124.677L44.0254 135.165Z" fill="#FF5722"/>
<path d="M44.0254 99.6108L65 99.6108L54.5127 89.1235L44.0254 99.6108Z" fill="#FF5722"/>
<path d="M44.0254 64.0723L65 64.0723L54.5127 53.585L44.0254 64.0723Z" fill="#FF5722"/>
<path d="M44.0254 28.5334L65 28.5334L54.5127 18.031L44.0254 28.5334Z" fill="#FF5722"/>
<path d="M1.90735e-05 153.426L20.9746 153.426L10.4873 142.939L1.90735e-05 153.426Z" fill="#FF5722"/>
<path d="M1.90735e-05 117.873L20.9746 117.873L10.4873 107.385L1.90735e-05 117.873Z" fill="#FF5722"/>
<path d="M1.90735e-05 82.334L20.9746 82.334L10.4873 71.8467L1.90735e-05 82.334Z" fill="#FF5722"/>
<path d="M1.90735e-05 46.7954L20.9746 46.7954L10.4873 36.3081L1.90735e-05 46.7954Z" fill="#FF5722"/>
<path d="M1.90735e-05 11.2417L20.9746 11.2417L10.4873 0.754408L1.90735e-05 11.2417Z" fill="#FF5722"/>
</g>
<defs>
<clipPath id="clip0_1956_21066">
<rect width="65" height="169.949" fill="white" transform="translate(65 170.703) rotate(180)"/>
</clipPath>
</defs>
</svg>
