<svg width="80" height="81" viewBox="0 0 80 81" fill="none" xmlns="http://www.w3.org/2000/svg">
<path d="M27.8519 59.0997C27.2549 58.0185 27.329 57.5721 28.2552 56.7551C29.4947 55.6625 30.9762 54.9872 32.5644 54.5534C32.9169 54.4573 33.3578 54.6798 33.7597 54.7431C33.9431 54.7722 34.1539 54.8278 34.3112 54.7684C34.7301 54.6103 35.1047 54.3384 35.6028 54.4876C35.6991 54.5154 35.8656 54.3928 35.9696 54.3068C36.5433 53.8376 36.901 53.1509 36.9985 52.3175C33.3669 51.1971 30.3233 49.3507 28.9198 45.6428C27.3108 45.8628 26.0856 45.2343 25.0801 44.1113C24.0096 42.915 23.6233 40.6412 24.7628 39.3829C24.8512 39.2855 24.8577 39.092 24.8551 38.944C24.8252 37.0825 24.7927 35.2222 24.7367 33.362C24.7315 33.1773 24.5702 32.999 24.4857 32.8156C24.3127 32.4401 23.9849 32.0569 24.0005 31.6889C24.0305 30.9769 24.1787 30.2484 24.4155 29.5719C24.9722 27.9784 25.854 26.5431 26.892 25.2C26.9883 25.0748 27.0858 24.9496 27.2107 24.7878C27.0871 24.7435 26.9909 24.7056 26.8933 24.6752C26.2872 24.4956 25.8592 24.1314 25.7435 23.513C25.6238 22.8744 25.7929 22.261 26.3717 21.9335C27.0052 21.5756 27.7141 21.3315 28.4138 21.1064C28.7455 20.9989 28.9432 20.9041 29.0707 20.55C29.232 20.0985 29.4765 19.6445 29.7939 19.2816C30.6641 18.2838 32.0701 18.4811 32.6789 19.6458C32.714 19.7141 32.7478 19.7824 32.8063 19.8974C33.8274 19.0565 34.9837 18.5013 36.2493 18.1801C38.6075 17.5819 40.9748 17.6628 43.3356 18.1712C45.8355 18.71 48.2314 19.5181 50.3958 20.8851C51.6783 21.6957 52.7709 22.691 53.4837 24.0341C53.7711 24.574 53.8232 25.1052 53.4928 25.654C53.4355 25.7489 53.4355 25.9272 53.4902 26.0258C54.467 27.8292 54.865 29.7907 55.1213 31.7812C55.4295 34.184 55.4868 36.5931 55.1785 39.0022C55.1642 39.1135 55.1915 39.2691 55.2643 39.3437C56.4558 40.5476 56.1488 43.0351 54.7441 44.3895C53.775 45.3241 52.6434 45.8515 51.1619 45.6403C49.7754 49.3077 46.7668 51.1945 43.0637 52.32C43.1613 53.2015 43.4903 54.026 44.263 54.3789C44.7936 54.6204 45.4895 54.6002 46.0618 54.891C46.0996 54.91 46.2023 54.8329 46.2621 54.7861C46.7148 54.437 47.2065 54.432 47.7332 54.6014C49.2226 55.0833 50.6286 55.7156 51.8084 56.7488C52.7345 57.5594 52.8151 58.0058 52.2376 59.0871C53.1624 60.1962 53.9051 61.4254 54.389 62.795C54.8013 63.961 54.2212 64.759 52.9413 64.759C44.3384 64.7602 35.7355 64.7602 27.1326 64.759C25.8501 64.759 25.27 63.9622 25.6837 62.7975C26.1662 61.4406 26.8985 60.224 27.8506 59.1023L27.8519 59.0997ZM54.0404 38.5495C54.0508 38.4837 54.0638 38.423 54.0703 38.3611C54.2979 36.2327 54.2511 34.1056 53.9701 31.9873C53.6905 29.8868 53.3393 27.8027 52.0776 25.9904C51.876 25.7008 51.9124 25.3758 52.2272 25.2064C52.6447 24.9813 52.5511 24.7334 52.3794 24.4286C51.8201 23.4384 51.0396 22.6316 50.0693 22.0359C46.3415 19.7495 42.2989 18.5569 37.8648 19.0299C35.3947 19.2942 33.3279 20.3097 32.1248 22.5797C31.9518 22.9047 31.6539 23.0413 31.3105 22.8693C30.9658 22.6973 30.945 22.4027 31.0803 22.0562C31.2741 21.5579 31.4471 21.0495 31.5824 20.5348C31.6539 20.2604 31.65 19.8873 31.2871 19.8405C31.0621 19.8114 30.7889 20.0125 30.5639 20.1529C30.4533 20.2212 30.3766 20.378 30.3363 20.5095C30.1984 20.9597 30.0696 21.4137 29.9617 21.8703C29.8576 22.3078 29.5064 22.5835 29.1695 22.385C28.4659 21.9702 27.8988 22.3445 27.3095 22.6101C27.0377 22.7327 26.7515 22.9579 26.9076 23.2639C27 23.446 27.333 23.6205 27.5515 23.6142C28.0965 23.5978 28.6402 23.4839 29.1813 23.3941C29.5363 23.3347 29.8043 23.4321 29.9097 23.7748C30.015 24.1163 29.8654 24.4021 29.5181 24.4741C28.8119 24.6208 28.3553 25.0748 27.9339 25.582C26.8725 26.8567 26.0778 28.2807 25.525 29.8248C25.3299 30.3686 25.2336 30.9503 25.1478 31.5232C25.127 31.661 25.2921 31.9216 25.4287 31.9683C25.8254 32.1037 25.9412 32.3477 25.9347 32.7246C25.9178 33.6554 25.9165 34.5861 25.9139 35.5169C25.9113 36.5387 25.9139 37.5605 25.9139 38.5735C26.5512 38.5229 27.0455 38.4825 27.5333 38.4433C27.8623 36.7158 28.0809 36.1227 29.4219 34.227C30.9879 32.0139 32.1065 29.6313 32.6437 26.9933C32.7764 26.3395 33.19 25.888 33.8378 25.6705C34.8979 25.3126 35.876 25.4555 36.6447 26.2838C37.0518 26.7239 37.416 27.226 37.6892 27.7546C38.1314 28.612 38.5047 29.5048 38.8637 30.3989C39.4685 31.9038 40.3569 33.1912 41.7461 34.1182C43.7804 35.4752 46.1048 35.9317 48.5007 36.1391C49.0743 36.1884 49.259 35.8723 48.9858 35.3424C48.1664 33.7527 47.6552 32.0657 47.2403 30.3433C46.9138 28.9863 46.4599 27.6749 45.5546 26.5557C44.7156 25.52 43.6386 24.7726 42.4758 24.1251C42.1571 23.9481 41.9893 23.6787 42.1831 23.3347C42.386 22.9743 42.7073 22.9604 43.0585 23.1463C45.4778 24.4324 47.2559 26.2408 48.035 28.8738C48.4473 30.2662 48.8297 31.6686 49.3071 33.0395C49.9249 34.8176 50.652 36.5552 51.811 38.0879C52.0399 38.3901 52.2714 38.547 52.6954 38.4951C53.1208 38.4433 53.5643 38.5255 54.0417 38.5507L54.0404 38.5495ZM45.4232 36.8359C45.3621 36.8195 45.2996 36.8018 45.2385 36.7866C45.1292 36.7588 45.0187 36.7309 44.9094 36.7031C41.4547 35.8014 38.8832 33.9336 37.6606 30.538C37.3458 29.6642 36.9335 28.8181 36.5003 27.9923C36.2922 27.5953 35.9853 27.2121 35.6328 26.9301C34.8523 26.3066 33.9614 26.6733 33.6869 27.5915C33.285 28.9332 32.9143 30.3054 32.3056 31.5611C31.6188 32.9775 30.7005 34.2915 29.8459 35.6282C29.1943 36.6487 28.6519 37.6933 28.6857 38.9301C28.7364 40.7993 29.0187 42.633 29.6326 44.411C30.5847 47.1667 32.3381 49.2457 35.1281 50.3839C36.3638 50.8872 37.6398 51.3273 38.9353 51.6498C39.6285 51.8218 40.4337 51.8053 41.1361 51.6523C42.2521 51.4095 43.346 51.0339 44.4112 50.6204C46.56 49.7857 48.3472 48.5072 49.4723 46.4724C50.6741 44.301 51.0995 41.9374 51.3349 39.5245C51.3453 39.4233 51.3232 39.2969 51.266 39.2134C50.7509 38.4534 50.2241 37.7009 49.7129 36.9636C49.3942 37.08 49.0626 37.2001 48.7309 37.3203C48.7491 38.1423 48.4877 38.3168 47.6721 38.0474C47.399 37.9576 47.1102 37.9146 46.7499 37.8337C46.8332 37.9652 46.8566 38.007 46.8839 38.0449C47.3261 38.6405 47.356 39.197 46.9723 39.6978C46.6367 40.1341 46.0696 40.3225 45.5468 40.172C44.9185 39.9912 44.6128 39.5397 44.5829 38.8062C44.5777 38.6835 44.4802 38.5394 44.3813 38.4483C44.0626 38.1549 44.0171 37.8337 44.3514 37.5542C44.6662 37.2912 45.0369 37.0914 45.4232 36.8372V36.8359ZM40.0357 60.7779C40.3816 60.2038 40.712 59.6663 41.0294 59.1212C41.0801 59.034 41.1087 58.9075 41.0879 58.8127C40.9878 58.3523 41.1543 57.9805 41.4482 57.6366C42.1116 56.8626 42.7671 56.0823 43.45 55.2768C42.6345 54.6027 42.1246 53.7453 41.9126 52.6653C40.6522 53.0409 39.4087 53.0194 38.147 52.6741C37.961 53.7794 37.4082 54.609 36.62 55.2856C37.2469 56.0178 37.8375 56.7096 38.4319 57.3988C38.8039 57.83 39.1447 58.2676 38.9743 58.8898C38.9535 58.9644 39.0107 59.0706 39.0562 59.1491C39.371 59.6802 39.6923 60.2088 40.0357 60.7792V60.7779ZM45.8667 63.6221C46.4377 63.6221 46.9411 63.6511 47.4367 63.6081C47.637 63.5904 47.8971 63.4602 48.0038 63.3008C49.1003 61.6821 50.1656 60.0444 51.2569 58.4219C51.4403 58.15 51.4533 57.9717 51.197 57.7377C50.0706 56.7096 48.7166 56.095 47.2637 55.6536C47.1817 55.6283 47.0829 55.6625 46.9515 55.6713C46.5912 58.3144 46.2335 60.9347 45.8667 63.6233V63.6221ZM34.2046 63.6195C34.0654 62.5939 33.934 61.6277 33.8027 60.6616C33.5959 59.1301 33.3916 57.5999 33.1783 56.0697C33.1484 55.8522 33.1653 55.5335 32.7725 55.6587C31.3105 56.1203 29.9253 56.7222 28.8314 57.8111C28.7312 57.911 28.6987 58.2031 28.7741 58.3207C29.8706 60.0141 30.9892 61.6948 32.1104 63.3729C32.1807 63.4779 32.3186 63.6031 32.4304 63.6081C33.0092 63.6322 33.5881 63.6195 34.2059 63.6195H34.2046ZM35.3804 63.5828H44.6961C44.8027 62.776 44.9042 62.0046 45.0083 61.2281C43.5632 61.6138 42.8985 60.4643 41.923 59.9028C41.3195 60.7868 40.8226 61.715 40.6405 62.7735C40.5794 63.1251 40.4428 63.3957 40.0487 63.4007C39.6545 63.4058 39.5141 63.1339 39.4373 62.7887C39.2071 61.7479 38.8026 60.7766 38.1496 59.8977C37.1793 60.4706 36.5029 61.6277 35.0631 61.2332C35.1697 62.0223 35.2725 62.7836 35.3804 63.5841V63.5828ZM45.7145 56.1026C45.6183 56.0191 45.4791 55.8509 45.2996 55.7598C45.085 55.6511 44.8418 55.4905 44.605 55.7636C43.9092 56.5705 43.2029 57.3697 42.5044 58.1753C42.3028 58.408 42.3184 58.6331 42.5642 58.8316C43.0507 59.2224 43.5229 59.6321 44.0353 59.985C44.168 60.0773 44.5361 60.071 44.6154 59.9736C44.899 59.6208 45.2177 59.2351 45.3165 58.8152C45.5142 57.9767 45.5767 57.1079 45.7145 56.1026ZM34.3542 56.0558C34.4725 56.9145 34.6065 57.6441 34.665 58.3789C34.7132 58.9809 35.0032 59.4475 35.3635 59.9002C35.5742 60.1646 35.8123 60.1873 36.0724 59.9812C36.5485 59.6043 37.0219 59.2224 37.4967 58.8443C37.7373 58.6521 37.788 58.4269 37.5825 58.1892C36.8749 57.371 36.1752 56.5452 35.4325 55.7586C35.3323 55.6523 34.9954 55.6991 34.7938 55.7573C34.6143 55.8092 34.4686 55.9748 34.3542 56.057V56.0558ZM27.558 39.6598C26.2781 39.4056 25.3559 40.0266 25.2492 41.1698C25.1061 42.7013 26.308 44.2416 27.8688 44.5173C28.0496 44.5489 28.2395 44.5388 28.4698 44.5502C28.3059 43.8736 28.1342 43.2691 28.0197 42.6532C27.9261 42.1512 27.5905 41.9425 27.1417 41.8299C27.0013 41.7945 26.8491 41.8084 26.7086 41.7781C26.3834 41.7073 26.1844 41.5112 26.213 41.1774C26.2417 40.8448 26.4602 40.669 26.801 40.6728C27.0819 40.6753 27.3642 40.7082 27.6867 40.731C27.6425 40.3604 27.6022 40.0202 27.5593 39.6611L27.558 39.6598ZM52.5081 39.6636C52.4678 40.038 52.4301 40.3895 52.395 40.7284C52.7514 40.7069 53.0635 40.6184 53.325 40.6956C53.537 40.7575 53.8206 41.0079 53.8323 41.1888C53.844 41.3734 53.5851 41.5998 53.4004 41.7604C53.3107 41.8375 53.0974 41.7642 52.9803 41.8287C52.6824 41.9918 52.2519 42.1385 52.1543 42.394C51.8981 43.0642 51.7914 43.7876 51.6094 44.5514C51.837 44.54 52.0269 44.5489 52.2103 44.5173C53.7334 44.2466 54.9171 42.7708 54.8299 41.2609C54.761 40.0582 53.8245 39.3955 52.5094 39.6649L52.5081 39.6636ZM28.5413 60.095C27.744 61.0574 27.2016 62.0678 26.7854 63.1503C26.6423 63.5209 26.7528 63.6296 27.1365 63.6258C28.2708 63.6145 29.405 63.6221 30.5392 63.6195C30.6237 63.6195 30.7083 63.593 30.8423 63.5702C30.067 62.3992 29.3256 61.2787 28.5426 60.095H28.5413ZM49.1978 63.6208C50.5506 63.6208 51.798 63.6208 53.0453 63.6208C53.3341 63.6208 53.4134 63.5095 53.312 63.2338C52.9049 62.1121 52.3403 61.0776 51.5378 60.0899C50.7626 61.2597 50.0121 62.3916 49.1978 63.6221V63.6208Z" fill="#3A3E56"/>
<path d="M40.0405 43.2305C40.4775 43.2305 40.9145 43.2267 41.3516 43.2305C42.292 43.2419 42.8383 43.9084 42.6445 44.7987C42.3557 46.1189 41.3256 46.9751 40.0314 46.9726C38.7372 46.97 37.7057 46.1063 37.426 44.7898C37.2361 43.8995 37.785 43.2406 38.7294 43.2305C39.1664 43.2255 39.6034 43.2305 40.0405 43.2305ZM41.4934 44.4003H38.5915C38.6643 45.2501 39.2327 45.8192 39.9962 45.8357C40.7897 45.8534 41.3516 45.3349 41.4934 44.4003Z" fill="#3A3E56"/>
<path d="M33.234 37.828C32.8659 37.9343 32.4965 38.0329 32.131 38.148C31.7825 38.258 31.5093 38.172 31.3701 37.847C31.2297 37.5207 31.3688 37.2729 31.6836 37.1034C32.8204 36.4939 34.5621 36.6254 35.5493 37.3993C36.0566 37.7977 36.0618 38.0645 35.5961 38.5033C35.522 38.5729 35.4856 38.7095 35.4843 38.8157C35.4674 39.5201 35.1682 39.9665 34.5634 40.1575C34.0249 40.3282 33.437 40.1436 33.0949 39.6959C32.7216 39.2077 32.7437 38.6399 33.1547 38.0835C33.1924 38.0329 33.2288 37.9836 33.2653 37.933C33.2549 37.8989 33.2431 37.8634 33.2327 37.8293L33.234 37.828Z" fill="#3A3E56"/>
<path d="M33.2073 34.2083C34.2946 34.1754 35.3378 34.3651 36.355 34.7305C36.7283 34.8646 37.0014 35.0606 36.8883 35.4931C36.7933 35.8548 36.4434 35.9813 35.9661 35.7954C34.6562 35.2882 33.3022 35.3173 31.9365 35.4248C31.8233 35.4337 31.7101 35.459 31.597 35.4526C31.2432 35.4337 31.0013 35.263 30.9869 34.9063C30.9739 34.5775 31.1677 34.3676 31.5098 34.3347C32.0743 34.2816 32.6414 34.2487 33.2073 34.2083Z" fill="#3A3E56"/>
<path d="M40.0161 40.0698C40.4089 40.2355 40.7731 40.3354 41.071 40.5289C41.3727 40.7249 41.4325 41.0651 41.2153 41.3648C40.9916 41.6734 40.6742 41.6999 40.3725 41.4571C40.1266 41.2586 39.925 41.275 39.6857 41.4698C39.4034 41.6987 39.1004 41.6683 38.8741 41.3926C38.6529 41.122 38.6724 40.7831 38.943 40.5883C39.2552 40.3645 39.6441 40.2431 40.0161 40.0711V40.0698Z" fill="#3A3E56"/>
</svg>
